<?xml version="1.0" encoding="UTF-8" standalone="no"?>
<!-- Created with Inkscape (http://www.inkscape.org/) -->

<svg
   width="512"
   height="512"
   viewBox="0 0 512 512"
   version="1.1"
   id="svg1"
   inkscape:version="1.3.2 (091e20ef0f, 2023-11-25, custom)"
   sodipodi:docname="logo.svg"
   inkscape:export-filename="logo.png"
   inkscape:export-xdpi="96"
   inkscape:export-ydpi="96"
   xmlns:inkscape="http://www.inkscape.org/namespaces/inkscape"
   xmlns:sodipodi="http://sodipodi.sourceforge.net/DTD/sodipodi-0.dtd"
   xmlns:xlink="http://www.w3.org/1999/xlink"
   xmlns="http://www.w3.org/2000/svg"
   xmlns:svg="http://www.w3.org/2000/svg">
  <sodipodi:namedview
     id="namedview1"
     pagecolor="#505050"
     bordercolor="#eeeeee"
     borderopacity="1"
     inkscape:showpageshadow="0"
     inkscape:pageopacity="0"
     inkscape:pagecheckerboard="0"
     inkscape:deskcolor="#505050"
     inkscape:document-units="px"
     inkscape:zoom="2.8284271"
     inkscape:cx="125.51145"
     inkscape:cy="241.65374"
     inkscape:window-width="1918"
     inkscape:window-height="2120"
     inkscape:window-x="0"
     inkscape:window-y="38"
     inkscape:window-maximized="1"
     inkscape:current-layer="layer2"
     showgrid="false">
    <inkscape:grid
       id="grid388"
       units="px"
       originx="0"
       originy="0"
       spacingx="1"
       spacingy="1"
       empcolor="#0099e5"
       empopacity="0.30196078"
       color="#0099e5"
       opacity="0.14901961"
       empspacing="5"
       dotted="false"
       gridanglex="30"
       gridanglez="30"
       visible="false" />
  </sodipodi:namedview>
  <defs
     id="defs1">
    <inkscape:path-effect
       effect="envelope"
       id="path-effect18"
       is_visible="true"
       lpeversion="1"
       yy="true"
       xx="true"
       bendpath1="m -733.16937,163.66712 c 192.04585,-75.164113 372.8267,-67.585161 545.32317,0.84377"
       bendpath2="m -187.8462,164.51089 -8.68466,43.40482"
       bendpath3="m -722.85133,234.1148 c 93.03798,-59.72545 237.51915,-82.43468 523.05321,-3.64849"
       bendpath4="m -733.84736,141.62234 7.90548,66.29337"
       bendpath1-nodetypes="cc"
       bendpath2-nodetypes="cc"
       bendpath4-nodetypes="cc"
       bendpath3-nodetypes="cc" />
    <rect
       x="-509.90548"
       y="315.35098"
       width="308.46981"
       height="101.88846"
       id="rect17" />
    <inkscape:path-effect
       effect="envelope"
       id="path-effect17"
       is_visible="true"
       lpeversion="1"
       yy="true"
       xx="true"
       bendpath1="m -805.89245,318.29169 c 157.54334,74.00745 325.67985,80.20137 505.29279,-0.91061"
       bendpath2="m -300.59966,317.38108 68.23811,183.99441"
       bendpath3="m -856.54914,501.37549 c 197.98155,132.70437 405.55679,139.11891 624.18759,0"
       bendpath4="m -805.89245,318.29169 -50.65669,183.0838"
       bendpath1-nodetypes="cc"
       bendpath2-nodetypes="cc"
       bendpath4-nodetypes="cc"
       bendpath3-nodetypes="cc" />
    <inkscape:path-effect
       effect="envelope"
       id="path-effect14"
       is_visible="true"
       lpeversion="1"
       yy="true"
       xx="true"
       bendpath1="m -805.89245,318.29169 c 157.54334,74.00745 325.67985,80.20137 505.29279,-0.91061"
       bendpath2="m -300.59966,317.38108 68.23811,183.99441"
       bendpath3="m -856.54914,501.37549 c 197.98155,132.70437 405.55679,139.11891 624.18759,0"
       bendpath4="m -805.89245,318.29169 -50.65669,183.0838"
       bendpath1-nodetypes="cc"
       bendpath2-nodetypes="cc"
       bendpath4-nodetypes="cc"
       bendpath3-nodetypes="cc" />
    <inkscape:path-effect
       effect="envelope"
       id="path-effect13"
       is_visible="true"
       lpeversion="1"
       yy="true"
       xx="true"
       bendpath1="m -886.24825,-122.99241 c 198.63613,-133.84286 411.1977,-216.96954 706.15846,0"
       bendpath2="m -180.08979,-122.99241 c -24.18802,31.396295 -51.69245,68.327199 -95.64777,187.541847"
       bendpath3="m -781.03034,63.638821 c 167.41526,-99.588095 335.21313,-108.432582 505.29278,0.910616"
       bendpath4="m -886.24825,-122.99241 c 37.28472,57.75968 74.21751,116.2274341 105.21791,186.631231"
       bendpath3-nodetypes="cc"
       bendpath2-nodetypes="cc"
       bendpath4-nodetypes="cc"
       bendpath1-nodetypes="cc" />
    <inkscape:path-effect
       effect="envelope"
       id="path-effect7"
       is_visible="true"
       lpeversion="1"
       yy="true"
       xx="true"
       bendpath1="m 214.13734,364.84042 c 0.33618,7.78527 28.47313,13.7666 88.65409,6.13637"
       bendpath2="m 304.93941,367.67195 -2.70326,21.24679"
       bendpath3="m 219.80918,388.31487 c 66.54755,22.62512 84.91061,11.55939 82.42697,0.60387"
       bendpath4="m 220.36445,370.37292 -2.91074,19.5544"
       bendpath1-nodetypes="cc"
       bendpath3-nodetypes="cc"
       bendpath2-nodetypes="cc"
       bendpath4-nodetypes="cc" />
    <rect
       x="230.745"
       y="379.6427"
       width="141.27271"
       height="37.853791"
       id="rect7" />
    <rect
       x="175.7786"
       y="353.46067"
       width="160.48599"
       height="47.489838"
       id="rect6" />
    <rect
       x="132.80786"
       y="365.38907"
       width="221.96057"
       height="53.362946"
       id="rect5" />
    <inkscape:path-effect
       effect="envelope"
       id="path-effect5"
       is_visible="true"
       lpeversion="1"
       yy="true"
       xx="false"
       bendpath1="m 152.99888,66.458371 c 42.98629,-25.880895 102.67938,-14.013148 121.5396,1.340204"
       bendpath2="m 250.04495,52.337667 v 8.818362"
       bendpath3="m 150.47523,104.43676 c 21.82971,-46.926157 71.0566,-39.570303 129.71102,-1.8974"
       bendpath4="m 183.88672,52.337667 v 8.818362"
       bendpath3-nodetypes="cc"
       bendpath1-nodetypes="cc" />
    <rect
       x="183.76922"
       y="50.405624"
       width="192.68047"
       height="29.70661"
       id="rect4" />
    <linearGradient
       id="linearGradient195"
       inkscape:collect="always">
      <stop
         style="stop-color:#a0a0a0;stop-opacity:1;"
         offset="0"
         id="stop195" />
      <stop
         style="stop-color:#000000;stop-opacity:1;"
         offset="0.99989998"
         id="stop196" />
    </linearGradient>
    <linearGradient
       id="swatch7"
       inkscape:swatch="solid">
      <stop
         style="stop-color:#800000;stop-opacity:1;"
         offset="0"
         id="stop7" />
    </linearGradient>
    <inkscape:path-effect
       effect="fillet_chamfer"
       id="path-effect6"
       is_visible="true"
       lpeversion="1"
       nodesatellites_param="F,0,0,1,0,0,0,1 @ F,0,0,1,0,0,0,1 @ F,0,0,1,0,0,0,1 @ F,0,0,1,0,0,0,1 @ F,0,0,1,0,3.3322455,0,1 @ F,0,0,1,0,0,0,1"
       radius="0"
       unit="px"
       method="auto"
       mode="F"
       chamfer_steps="1"
       flexible="false"
       use_knot_distance="true"
       apply_no_radius="true"
       apply_with_radius="true"
       only_selected="false"
       hide_knots="false" />
    <inkscape:path-effect
       effect="fillet_chamfer"
       id="path-effect4"
       is_visible="true"
       lpeversion="1"
       nodesatellites_param="F,0,0,1,0,0,0,1 @ F,0,0,1,0,0,0,1 @ F,0,0,1,0,0,0,1 @ F,0,0,1,0,0,0,1 @ F,0,0,1,0,3.3322455,0,1 @ F,0,0,1,0,0,0,1"
       radius="0"
       unit="px"
       method="auto"
       mode="F"
       chamfer_steps="1"
       flexible="false"
       use_knot_distance="true"
       apply_no_radius="true"
       apply_with_radius="true"
       only_selected="false"
       hide_knots="false" />
    <linearGradient
       id="linearGradient2"
       inkscape:collect="always">
      <stop
         style="stop-color:#97dd8a;stop-opacity:1;"
         offset="0"
         id="stop2" />
      <stop
         style="stop-color:#0d7069;stop-opacity:1;"
         offset="1"
         id="stop3" />
    </linearGradient>
    <radialGradient
       inkscape:collect="always"
       xlink:href="#linearGradient2"
       id="radialGradient3"
       cx="259.41693"
       cy="245.53847"
       fx="259.41693"
       fy="245.53847"
       r="256"
       gradientUnits="userSpaceOnUse"
       gradientTransform="matrix(1.3558399,1.217143e-6,0,1.2916198,-92.31084,-71.604209)" />
    <filter
       style="color-interpolation-filters:sRGB;"
       inkscape:label="Diffuse Light"
       id="filter164"
       x="-0.051939307"
       y="-0.11547235"
       width="1.1038786"
       height="1.2309447">
      <feGaussianBlur
         in="SourceGraphic"
         stdDeviation="7.33668"
         result="blur"
         id="feGaussianBlur163" />
      <feDiffuseLighting
         diffuseConstant="1"
         surfaceScale="10"
         lighting-color="rgb(236,230,255)"
         result="diffuse"
         id="feDiffuseLighting163">
        <feDistantLight
           elevation="29"
           azimuth="219"
           id="feDistantLight163" />
      </feDiffuseLighting>
      <feComposite
         in="diffuse"
         in2="diffuse"
         operator="arithmetic"
         k1="1"
         result="composite1"
         id="feComposite163" />
      <feComposite
         in="composite1"
         in2="SourceGraphic"
         k1="0.87451"
         operator="arithmetic"
         k3="1"
         result="composite2"
         id="feComposite164" />
    </filter>
    <radialGradient
       inkscape:collect="always"
       xlink:href="#linearGradient195"
       id="radialGradient196"
       cx="194.33713"
       cy="249.32217"
       fx="194.33713"
       fy="249.32217"
       r="8.8727522"
       gradientTransform="matrix(-0.74871358,1.8936164,-1.6441076,-0.65006071,743.46432,42.608179)"
       gradientUnits="userSpaceOnUse"
       spreadMethod="pad" />
    <radialGradient
       inkscape:collect="always"
       xlink:href="#linearGradient195"
       id="radialGradient201"
       gradientUnits="userSpaceOnUse"
       gradientTransform="matrix(-0.74871358,1.8936164,-1.6441076,-0.65006071,871.92345,42.608179)"
       cx="194.33713"
       cy="249.32217"
       fx="194.33713"
       fy="249.32217"
       r="8.8727522"
       spreadMethod="pad" />
  </defs>
  <g
     inkscape:label="background"
     inkscape:groupmode="layer"
     id="layer1"
     style="display:inline">
    <circle
       style="fill:url(#radialGradient3);fill-opacity:1;stroke-width:13.7561"
       id="path1"
       cx="256"
       cy="256"
       r="256"
       inkscape:label="circle" />
  </g>
  <g
     inkscape:groupmode="layer"
     id="layer2"
     inkscape:label="text + symbols">
    <path
       style="display:inline;font-size:115.697px;font-family:'Droid Serif';-inkscape-font-specification:'Droid Serif, Normal';fill:#ac851a;stroke:#080702;stroke-width:2.16379788;stroke-dasharray:none"
       d="m -829.31622,499.39363 c 7.0981,4.13906 14.17263,8.13006 21.22753,11.97155 1.75093,0.9534 3.39161,1.2185 4.91785,0.79945 1.58586,-0.48212 3.06183,-1.45559 4.41845,-2.91411 1.35659,-1.45849 2.60597,-3.30079 3.73991,-5.521 1.15641,-2.3025 2.18687,-4.79926 3.09071,-7.48869 1.18712,-3.46668 2.35048,-6.93861 3.48766,-10.39538 1.89414,0.96977 3.78687,1.92734 5.67825,2.87276 -3.78188,14.31563 -8.07541,29.26981 -13.05381,43.97014 -19.53708,-10.28554 -39.14346,-21.67629 -58.90293,-34.07863 1.05558,-3.44022 2.08553,-6.90429 3.09237,-10.37091 -10e-5,-6e-5 1.41701,0.87897 1.41692,0.87891 1.23466,0.7644 2.44232,1.31777 3.62395,1.66135 1.24145,0.28504 2.44358,0.11372 3.60483,-0.51268 1.1609,-0.6262 2.29256,-1.8918 3.38533,-3.79546 1.15227,-1.96324 2.23866,-4.77055 3.24491,-8.42394 0.83439,-3.02943 31.62249,-119.50198 32.51877,-123.0455 1.00732,-3.98256 1.59488,-7.3314 1.78231,-10.00318 0.18757,-2.67385 0.0738,-4.86172 -0.3328,-6.55111 -0.38669,-1.7747 -1.00586,-3.16132 -1.85853,-4.16768 -0.8223,-0.98784 -1.77099,-1.817 -2.85041,-2.49691 -0.40091,-0.25252 -0.80195,-0.50617 -1.20314,-0.76094 0.91323,-3.52413 1.80714,-7.06946 2.66982,-10.6238 15.5181,9.46119 30.93336,17.2106 46.30701,23.66403 -1.9958,17.41557 -4.59648,34.27432 -7.2638,49.81415 -1.70418,-0.851 -3.40967,-1.71646 -5.11651,-2.59666 0.57102,-3.9004 1.1359,-7.85338 1.68608,-11.83058 0.42141,-3.07973 0.67677,-6.07144 0.77196,-8.96163 0.14207,-2.96444 0.0452,-5.67409 -0.28157,-8.10553 -0.29601,-2.41732 -0.85309,-4.47488 -1.66569,-6.16266 -0.76695,-1.76495 -1.85054,-2.99155 -3.25696,-3.69619 -5.25801,-2.63435 -10.52699,-5.42935 -15.80934,-8.39917 -4.59764,21.95951 -11.11025,47.81087 -16.28039,68.369 8.47821,5.12018 16.89235,9.89572 25.25175,14.35277 -0.8984,4.12092 -1.81319,8.26209 -2.72674,12.34694 -8.47456,-4.50605 -17.00626,-9.32313 -25.60444,-14.47432 -5.58983,22.1625 -13.18098,52.53575 -19.70931,74.67561 z M -710.44147,384.6023 c 0.13674,-1.87395 0.10406,-3.44363 -0.0924,-4.68751 -0.1586,-1.34126 -0.44729,-2.40332 -0.86376,-3.17841 -0.37891,-0.87282 -0.86669,-1.50743 -1.4638,-1.9039 -0.59002,-0.50311 -1.2508,-0.86496 -1.984,-1.08818 4e-5,10e-6 -0.27492,-0.0838 -0.27489,-0.0838 0.31969,-4.56499 0.61399,-9.23927 0.87708,-14.02059 6.7356,1.87589 13.50109,3.57732 20.28299,5.1211 -0.16628,4.99608 -0.36214,9.87034 -0.58272,14.62126 2.7e-4,7e-5 -0.82928,-0.20978 -0.82901,-0.20971 -0.92134,-0.23401 -1.78277,-0.0647 -2.59002,0.5004 -0.77705,0.57353 -1.56897,1.74395 -2.38932,3.48664 -0.8149,1.63651 -1.69777,3.82274 -2.66974,6.52916 -0.94422,2.72502 -2.01719,6.06574 -3.26842,10.02067 -6.32501,19.91258 -13.59991,37.57489 -21.29417,53.7947 2.27018,27.10497 4.79375,56.66133 5.61948,84.16413 0.44856,5.82475 1.08814,10.14582 2.0144,12.91908 0.94538,2.67746 2.12091,4.28709 3.5498,4.8034 0.47535,0.17176 0.95089,0.34287 1.42661,0.51332 -0.92522,3.8822 -1.90204,7.81886 -2.93569,11.80965 -10.21552,-3.77155 -20.33372,-7.84227 -30.3648,-12.18555 1.11251,-3.83034 2.16842,-7.62291 3.17312,-11.37423 -8e-5,-3e-5 0.59537,0.25052 0.59529,0.25048 4.40003,1.8487 7.41869,-0.26502 8.86846,-6.17223 0.23394,-0.95319 0.41099,-1.92572 0.53158,-2.91734 0.15649,-0.97725 0.26213,-2.1608 0.31435,-3.54702 0.0522,-1.38575 0.0456,-3.11901 -0.0256,-5.19014 -0.0354,-2.05328 -0.10485,-4.67879 -0.22104,-7.83873 -0.57908,-14.97456 -1.5505,-30.22506 -2.57778,-45.01285 -6.32359,12.20695 -13.31093,24.61665 -20.58332,36.6386 -0.57798,0.93929 -1.19846,2.04405 -1.86635,3.31789 -0.64735,1.19037 -1.30233,2.47244 -1.96787,3.84882 -0.66547,1.37628 -1.29489,2.82024 -1.88982,4.33407 -0.573,1.42987 -1.04197,2.81908 -1.4048,4.16845 -0.79396,2.95268 -0.81538,5.33708 -0.0259,7.14487 0.84794,1.73673 2.48791,3.17314 4.92822,4.27762 -2e-5,-10e-6 0.32298,0.14607 0.32296,0.14606 -1.03086,3.68941 -2.11147,7.41329 -3.24721,11.16644 -8.78782,-4.07392 -17.53444,-8.36077 -26.24782,-12.84625 1.15075,-3.62963 2.25122,-7.2451 3.3065,-10.83792 -8e-5,-4e-5 0.69631,0.35023 0.69622,0.35019 1.3212,0.66365 2.54978,0.93961 3.68464,0.82983 1.1946,-0.17593 2.40808,-0.77761 3.63241,-1.80256 1.25961,-1.00722 2.61357,-2.4453 4.04612,-4.3088 1.43127,-1.86184 3.08645,-4.22872 4.9321,-7.08533 10.99023,-17.04509 21.66024,-35.29946 30.72286,-52.90689 -1.7665,-25.41373 -3.55536,-51.62993 -5.46564,-80.00499 -0.43176,-6.11007 -1.24156,-10.69606 -2.39605,-13.62256 -1.11494,-3.01903 -2.36505,-4.81078 -3.76371,-5.38659 -0.41042,-0.16896 -0.82082,-0.33877 -1.23123,-0.50942 0.51967,-4.19023 1.01433,-8.45965 1.47633,-12.80398 8.27874,3.20352 16.58272,6.06655 24.90081,8.63389 -0.31919,4.65642 -0.67022,9.21471 -1.04675,13.67212 3e-5,1e-5 -0.2743,-0.0924 -0.27427,-0.0923 -1.06662,-0.35956 -1.97197,-0.40314 -2.71929,-0.13208 -0.738,0.16823 -1.34321,0.58996 -1.81692,1.26365 -0.47367,0.67361 -0.84165,1.5375 -1.10411,2.59004 -0.26245,1.05251 -0.45547,2.1765 -0.57842,3.37218 -0.11273,1.09627 -0.20638,2.14244 -0.28043,3.14151 -0.0431,1.0104 -0.0618,2.23175 -0.0568,3.65931 0.0158,1.32948 0.0656,2.92188 0.14894,4.76846 0.11442,1.85665 0.28773,4.18609 0.51819,6.9589 1.42251,17.80787 2.20345,27.54879 3.57948,44.24835 5.04582,-11.54797 9.86596,-23.85762 14.27245,-37.18395 1.04915,-3.1747 1.91766,-6.26923 2.6137,-9.26039 0.69603,-2.99109 1.14614,-5.95582 1.35885,-8.871 z m 53.03961,-16.88641 c 3.22003,0.47151 6.0052,1.98438 8.38891,4.56689 2.4099,2.45678 4.41456,5.71495 6.00961,9.72225 1.62442,4.00723 2.83548,8.57044 3.61277,13.59885 0.80843,5.03123 1.19982,10.29786 1.15204,15.72752 -0.0322,3.6572 -0.29433,6.87786 -0.78603,9.69459 -0.45791,2.71406 -1.09597,4.98382 -1.91065,6.83292 -0.81228,1.74435 -1.76861,3.02652 -2.86242,3.86115 -1.06116,0.84013 -2.21135,1.14158 -3.44074,0.91284 0.14724,-4.87951 0.0627,-9.86767 -0.24531,-14.96465 -0.27608,-5.09052 -0.85035,-9.82571 -1.70396,-14.12351 -0.82104,-4.40755 -1.94201,-8.10402 -3.34869,-11.00559 -1.37736,-3.01925 -3.09981,-4.7126 -5.18382,-5.0697 -3.61304,-0.61909 -6.68321,1.34668 -9.33931,5.68969 -2.64712,4.22058 -4.93042,10.59811 -6.94434,18.75242 -2.00423,8.0308 -3.77515,17.81688 -5.3641,28.91649 -1.59483,11.09497 -3.05168,23.16823 -4.51782,36.61149 -1.30221,11.94022 -2.25784,22.64726 -2.81046,32.66908 -0.54993,9.97315 -0.56826,18.82093 0.0738,26.5576 0.65731,7.65206 2.00947,14.00796 4.1924,18.95384 2.22044,4.95787 5.41037,8.07419 9.63448,9.19959 2.79774,0.74538 5.38007,0.72207 7.73135,-0.0563 2.40329,-0.86214 4.60196,-2.22405 6.58277,-4.06408 1.98052,-1.83975 3.78243,-4.04962 5.39637,-6.61024 1.6634,-2.64344 3.16046,-5.39597 4.49253,-8.25136 0.49808,1.1199 0.84315,2.58073 1.02792,4.38772 0.18464,1.80562 0.0953,4.12887 -0.28866,6.97959 -0.48335,3.58876 -1.50875,7.21204 -3.10449,10.86444 -1.54429,3.56684 -3.6132,6.734 -6.20673,9.45358 -2.59392,2.71997 -5.69519,4.78943 -9.28238,6.14564 -3.5722,1.25889 -7.55195,1.29082 -11.90041,0.0579 -5.85069,-1.65882 -10.32409,-5.86802 -13.54426,-12.3358 -3.21357,-6.45454 -5.25295,-14.68646 -6.35538,-24.41878 0,-10e-6 -0.0105,-0.0959 -0.0105,-0.0959 -1.05601,-9.68104 -1.22256,-20.67446 -0.69373,-32.88125 0.53441,-12.33532 1.7343,-25.38625 3.51876,-40.00986 1.75273,-14.36359 3.81217,-27.65541 6.25474,-40.3645 2.29716,-11.95251 4.871,-22.94383 7.71788,-32.49184 0,0 0,0 0,0 0.15852,-0.53186 0.31799,-1.0596 0.47842,-1.58311 3.08079,-9.94355 6.49896,-18.12048 10.38437,-23.94032 3.90177,-5.84436 8.21669,-8.6183 13.19509,-7.88932 z m 65.24462,229.18012 c 0.34224,-4.46623 0.65683,-8.83449 0.94586,-13.11471 0.52377,0.0487 1.04765,0.0964 1.57163,0.14333 1.35884,0.12164 2.63648,-0.0205 3.83026,-0.42353 1.23277,-0.39986 2.31603,-1.31543 3.24415,-2.73323 0.97181,-1.51347 1.77352,-3.67416 2.39695,-6.44981 0.66166,-2.77272 1.07963,-6.45101 1.24237,-10.97056 0.80786,-22.43613 1.05083,-43.52042 0.90576,-65.12397 -11.55144,-0.69161 -23.09107,-1.79403 -34.58577,-3.30377 -0.67751,21.31718 -1.85799,42.40763 -3.82095,64.47638 -0.39736,4.46732 -0.50576,8.14047 -0.28447,10.98902 0.259,2.85118 0.72305,5.12932 1.40856,6.81124 0.73335,1.58911 1.67047,2.71921 2.81594,3.37679 1.145,0.65733 2.37421,1.07341 3.68675,1.24454 0.52099,0.0679 1.04212,0.13501 1.56339,0.20124 -0.39046,4.25262 -0.81143,8.59151 -1.26552,13.02528 -11.7338,-1.53667 -23.38359,-3.50853 -34.93185,-5.89313 0.67664,-4.33114 1.30971,-8.5766 1.90288,-12.74238 0.49507,0.0991 0.9903,0.19744 1.48571,0.29503 1.33413,0.26281 2.60724,0.2585 3.81673,-0.011 1.24771,-0.26227 2.40481,-1.04337 3.46331,-2.33246 1.07042,-1.38521 2.01945,-3.42642 2.83222,-6.09324 0.8125,-2.66589 1.46481,-6.24972 1.92995,-10.68668 4.56759,-43.56996 6.24269,-88.37117 6.07345,-141.3466 -0.016,-5.00447 -0.26976,-9.17378 -0.73827,-12.35992 -0.43845,-3.30358 -1.0327,-5.91999 -1.77513,-7.79139 -0.74316,-1.87326 -1.60288,-3.1141 -2.58141,-3.7081 -0.94836,-0.71105 -1.95386,-1.12937 -3.02025,-1.25642 -0.40758,-0.0486 -0.81509,-0.0976 -1.22252,-0.14698 -0.0372,-5.17792 -0.0938,-10.50934 -0.1718,-15.9938 9.2304,0.98421 18.53415,1.76878 27.84607,2.3626 0.16989,5.61547 0.32273,11.07004 0.45946,16.36317 -0.42645,-0.0314 -0.85284,-0.0632 -1.27916,-0.0954 -1.0741,-0.0813 -2.09146,0.14624 -3.05669,0.67893 -0.9654,0.53277 -1.78845,1.74364 -2.47822,3.60911 -0.66038,1.74733 -1.18065,4.32631 -1.57189,7.67834 -0.35917,3.35265 -0.5041,7.77377 -0.44796,13.12373 0.2396,22.83431 0.14536,43.50227 -0.26655,62.32029 11.32299,1.45149 22.69141,2.50926 34.0679,3.17166 -0.26557,-19.06307 -0.81623,-39.84598 -1.62179,-63.085 -0.18818,-5.42883 -0.57973,-9.95691 -1.15392,-13.41744 -0.54278,-3.46267 -1.21712,-6.16169 -2.01712,-8.0267 -0.77333,-1.98743 -1.66194,-3.32349 -2.66847,-3.9881 -0.97483,-0.66319 -2.01515,-1.02269 -3.12479,-1.07862 -0.42784,-0.0216 -0.85562,-0.0436 -1.28335,-0.066 -0.18058,-5.33055 -0.37559,-10.82524 -0.58542,-16.48321 9.34348,0.42018 18.74561,0.65562 28.13902,0.70492 -0.0355,-0.69708 0.87805,17.3272 0.84256,16.63012 -8e-5,-1e-5 -1.24114,-0.0107 -1.24122,-0.0107 -1.11426,-0.0107 -2.14785,0.28925 -3.10519,0.89789 -0.92563,0.60919 -1.70645,1.90076 -2.35011,3.85206 -0.64899,1.8275 -1.10208,4.49675 -1.36642,7.94461 -0.26411,3.44498 -0.27794,7.9643 -0.0498,13.40991 2.33206,55.67857 3.43502,97.6897 2.51277,143.91965 -0.085,4.26237 0.0752,7.78647 0.50733,10.53537 0.47277,2.65135 1.13358,4.70017 1.99198,6.12098 0.85805,1.42023 1.86614,2.4036 3.02546,2.93844 1.20007,0.43578 2.46458,0.66906 3.79214,0.69739 0.50748,0.0108 1.01499,0.0208 1.52254,0.03 -0.0589,4.30859 -0.1319,8.70553 -0.2197,13.20489 -11.88527,-0.21509 -23.73835,-0.89594 -35.53734,-2.024 z m 62.30113,-67.9743 c -0.92474,9.65432 -1.94967,19.41862 -3.07506,29.4507 -0.26262,2.24365 -0.45576,4.50113 -0.57724,6.77477 -0.12434,2.18008 -0.16612,4.08856 -0.12129,5.71946 0.13722,4.99189 0.85922,8.70345 2.20677,11.03676 1.38537,2.33015 3.4287,3.45735 6.12509,3.32627 0.91704,-0.0446 1.83397,-0.0918 2.75077,-0.14166 0.17082,4.29471 0.33878,8.6701 0.50537,13.15299 -9.96267,0.56553 -19.93743,0.81641 -29.91189,0.73903 0.0535,-4.50016 0.094,-8.89739 0.12194,-13.20663 0.76154,0.006 1.5231,0.0102 2.28469,0.0125 1.172,0.004 2.1681,-0.29879 2.98604,-0.90131 0.81789,-0.70259 1.55246,-1.95399 2.19933,-3.73823 0.64669,-1.78374 1.24241,-4.19556 1.77948,-7.20197 0.57456,-3.00238 1.18455,-6.8506 1.8066,-11.46104 7.46627,-57.80243 10.95905,-102.81075 12.6939,-184.36004 2.52096,-0.10389 5.04162,-0.22039 7.56047,-0.34944 12.22359,76.87475 27.60248,135.13992 41.24441,187.12337 0.78314,2.93848 1.51914,5.38849 2.2032,7.32915 0.7222,1.93495 1.48375,3.48824 2.28288,4.64785 0.7879,1.06274 1.63598,1.7739 2.54238,2.12746 0.90629,0.35353 1.93869,0.43717 3.09521,0.24798 0.5203,-0.0851 1.04046,-0.17103 1.56047,-0.25773 0.53039,4.17663 1.07756,8.44713 1.64089,12.79231 -11.05818,1.90868 -22.18534,3.4576 -33.35875,4.62355 0.0999,1.34011 -1.07533,-14.38501 -0.97541,-13.04489 0.91361,-0.0918 1.82695,-0.18609 2.74002,-0.28293 4.80502,-0.50962 6.71946,-5.70407 5.87333,-15.01109 -0.14644,-1.61069 -0.39129,-3.24758 -0.73255,-4.911 -0.30365,-1.6682 -0.70186,-3.55064 -1.19245,-5.64391 -2.4196,-10.13672 -4.9491,-20.77539 -7.24292,-30.54068 -9.65369,0.9313 -19.33144,1.58345 -29.01568,1.94842 z m 15.09547,-64.52043 c -1.81015,-8.83321 -3.47365,-17.37272 -5.02229,-25.7409 -1.51946,-8.45072 -2.86825,-16.97228 -4.05347,-25.5764 0.0941,4.32677 0.12558,8.43711 0.0935,12.35801 -0.008,3.80662 -0.0459,7.6507 -0.11618,11.52378 -0.0702,3.87243 -0.18109,7.88759 -0.33653,12.02255 -0.16292,4.02712 -0.36822,8.45986 -0.62322,13.21801 -0.96398,18.72771 -2.17898,35.84964 -3.68442,52.82631 8.17338,-0.33507 16.34249,-0.87368 24.49529,-1.61154 -3.58318,-15.57864 -7.21613,-31.85308 -10.75271,-49.01982 z m 116.32115,111.13443 c -24.71983,-45.41426 -50.33303,-98.14291 -68.10215,-152.4319 5.17469,42.57843 13.03952,96.06183 18.50948,131.02853 0.68304,4.36635 1.48866,7.87205 2.41251,10.47123 0.96118,2.59047 1.98812,4.56335 3.07416,5.89487 1.10825,1.2288 2.29542,1.95309 3.55649,2.16394 1.26083,0.21083 2.53853,0.16676 3.83077,-0.13265 0.51296,-0.11885 1.02573,-0.23845 1.53831,-0.3588 0.73462,4.06795 1.49475,8.21377 2.28171,12.4296 -9.93255,2.40761 -19.94537,4.53695 -30.02197,6.36986 -0.59424,-4.33028 -1.17075,-8.58553 -1.72928,-12.74963 0.49993,-0.0879 0.99973,-0.17648 1.49938,-0.26581 1.34552,-0.24056 2.55988,-0.71126 3.64168,-1.40723 1.12047,-0.70329 2.01396,-1.86113 2.68183,-3.46008 0.65402,-1.69474 1.02111,-3.96 1.11048,-6.77185 0.0894,-2.81307 -0.19757,-6.43132 -0.83905,-10.81768 -5.26333,-35.99027 -13.49018,-94.91438 -18.65738,-140.8245 -0.56318,-5.0038 -1.23703,-9.10773 -2.0167,-12.18777 -0.76107,-3.20339 -1.59551,-5.68514 -2.50655,-7.39174 -0.91146,-1.70735 -1.87734,-2.75797 -2.90454,-3.1303 -1.00745,-0.49739 -2.046,-0.68855 -3.11968,-0.56974 -2.7e-4,4e-5 -1.23104,0.13503 -1.23131,0.13506 -0.50394,-5.25405 -1.00675,-10.66539 -1.50502,-16.23469 5.86526,-0.56843 11.72676,-1.20956 17.56461,-1.92551 17.62488,66.91445 40.26325,115.31676 62.11015,157.34805 -7.11129,-33.64604 -16.31805,-81.29276 -22.76537,-124.0111 -0.7242,-4.7983 -1.51903,-8.70339 -2.3844,-11.61032 -0.85052,-3.02708 -1.74803,-5.34929 -2.69841,-6.91992 -0.95068,-1.5711 -1.93576,-2.50667 -2.96303,-2.78547 -1.01107,-0.40074 -2.04466,-0.50537 -3.10472,-0.30912 -0.42077,0.0779 -0.84164,0.1553 -1.26259,0.23221 -0.63982,-5.02933 -1.27261,-10.20037 -1.8933,-15.51266 3.45715,-0.56468 6.90943,-1.15989 10.35313,-1.78681 4.46369,-0.81258 8.9192,-1.67964 13.359,-2.60433 0.69341,5.11466 1.40286,10.10116 2.12233,14.95834 -0.40193,0.0931 -0.80395,0.18571 -1.20607,0.2778 -1.08298,0.24801 -2.06211,0.76126 -2.94094,1.5436 -0.84763,0.77523 -1.4975,2.14896 -1.95146,4.10942 -0.46981,1.84593 -0.67221,4.43732 -0.60307,7.71859 0.0691,3.27676 0.49769,7.51625 1.2949,12.57373 8.2074,52.06771 22.33056,121.17255 33.74066,166.32132 -1.81161,0.58922 -3.62654,1.1698 -5.44474,1.74159 -0.94239,0.29638 -1.88568,0.59035 -2.82985,0.88187 z m 68.64571,-22.83122 c -6.4853,2.8787 -12.96315,2.90985 -19.29847,0.11878 -6.29036,-2.80218 -12.25373,-7.98152 -17.73877,-15.34501 -5.44764,-7.37494 -10.33571,-16.67709 -14.64873,-27.83982 -4.30946,-11.15352 -8.00315,-23.83704 -11.17942,-38.34798 -3.12204,-14.26317 -5.21299,-28.15521 -6.34883,-41.58672 -1.10441,-13.45072 -1.17033,-25.98492 -0.21815,-37.10977 0.98466,-11.14936 3.0133,-20.55573 6.06789,-27.78788 3.0694,-7.26721 7.20929,-11.60638 12.52849,-13.19451 3.41938,-1.02091 6.551,-0.96101 9.42924,0.12474 2.88625,0.96852 5.49361,2.74707 7.83593,5.30108 2.3717,2.54214 4.45281,5.71137 6.24003,9.49488 1.78728,3.78363 3.25575,7.98916 4.38799,12.62641 0.76305,3.12521 1.23132,6.0259 1.3962,8.74056 0.14142,2.62016 0.0294,4.97474 -0.34046,7.08078 -0.36173,1.9993 -0.97675,3.69656 -1.84516,5.09473 -0.83656,1.38363 -1.88746,2.35073 -3.14682,2.89415 -1.09508,-4.39143 -2.39224,-8.70854 -3.88046,-12.98045 -1.48724,-4.26908 -3.12797,-8.04587 -4.91369,-11.30128 -1.80834,-3.3553 -3.74121,-5.94237 -5.80658,-7.715 -2.08841,-1.87635 -4.25726,-2.46246 -6.5412,-1.69665 -3.96057,1.32799 -6.90792,4.65529 -8.89917,10.0651 -1.97236,5.27448 -3.07199,12.43926 -3.28081,21.20407 -0.22826,8.65756 0.40951,18.84261 1.93518,30.17688 1.50522,11.23656 3.76466,23.50898 6.82173,36.65596 3.03413,13.04832 6.24969,24.25757 9.676,33.83227 3.43066,9.58687 7.17891,17.39353 11.22358,23.40917 4.04357,6.014 8.39357,10.15671 12.95813,12.33015 4.56772,2.17493 9.40616,2.18442 14.43757,-0.008 2.11879,-0.9234 4.08002,-2.0826 5.88315,-3.47102 1.83891,-1.40441 3.34394,-3.00783 4.51832,-4.79917 -4.47226,-13.60996 -8.71482,-27.61516 -12.60365,-40.91797 -1.07935,-3.69218 -2.17285,-6.53882 -3.28747,-8.54349 -1.10402,-2.10212 -2.20766,-3.5569 -3.31496,-4.36355 -1.13061,-0.88909 -2.27719,-1.31021 -3.44335,-1.26366 -1.13229,0.0317 -2.27374,0.29513 -3.42676,0.78972 -3e-5,1e-5 -0.40692,0.17434 -0.40695,0.17435 -0.97197,-3.55168 -1.94456,-7.13783 -2.90737,-10.71958 8.91717,-3.81239 17.82529,-7.93325 26.71018,-12.38055 1.06139,3.53454 2.13495,7.08922 3.20204,10.60092 -4e-5,2e-5 -0.40539,0.20194 -0.40542,0.20196 -0.97979,0.48754 -1.8469,1.15089 -2.60289,1.99159 -0.75582,0.84052 -1.25941,2.07174 -1.51146,3.69438 -0.2764,1.53979 -0.23586,3.62977 0.12509,6.26341 0.33603,2.54886 1.09411,5.79474 2.2855,9.71392 4.47666,14.72636 9.41189,30.38879 14.65155,45.46065 -2.2763,5.78449 -5.01693,10.60192 -8.25718,14.39895 -3.24056,3.7974 -7.25589,6.80056 -12.05961,8.93284 z m 54.50565,-45.1582 c 6.95871,-3.85961 13.916,-7.87273 20.86716,-12.04084 1.72552,-1.03468 2.98659,-2.44757 3.78506,-4.23213 0.80311,-1.88739 1.25809,-4.01675 1.36892,-6.38631 0.11083,-2.36947 -0.0569,-4.91968 -0.50026,-7.64915 -0.47333,-2.81101 -1.12683,-5.66062 -1.96025,-8.54682 -1.05568,-3.73139 -2.11706,-7.51338 -3.16346,-11.25182 1.85991,-1.19482 3.72131,-2.4048 5.58418,-3.63017 4.94655,14.46188 10.29484,30.01365 15.67575,44.22436 -19.31339,12.23009 -38.77817,23.40665 -58.27938,33.48696 -1.34135,-3.57265 -2.6454,-7.13902 -3.91477,-10.68669 0.46074,-0.23539 0.92139,-0.47138 1.38194,-0.70799 1.20459,-0.61883 2.2783,-1.37028 3.22117,-2.25198 0.94877,-0.98262 1.62085,-2.26356 2.02031,-3.83942 0.39961,-1.57636 0.43152,-3.59064 0.1069,-6.04204 -0.31842,-2.55223 -1.12059,-5.66286 -2.38611,-9.33395 -9.78738,-28.39177 -30.60686,-93.69893 -39.73554,-125.96299 -1.22037,-4.31323 -2.38732,-7.73151 -3.50165,-10.2037 -1.11538,-2.47452 -2.1978,-4.26176 -3.25529,-5.33883 -1.08198,-1.17099 -2.14448,-1.78778 -3.19521,-1.83589 -1.02057,-0.0619 -2.0551,0.13939 -3.1068,0.60835 -0.39061,0.17417 -0.78129,0.34753 -1.17205,0.52007 -1.00416,-4.13953 -1.99175,-8.35145 -2.95359,-12.63056 15.27795,-6.25452 30.48438,-13.77158 45.53322,-22.98065 5.00481,14.60707 10.8045,29.78915 16.30918,43.99348 -1.66107,1.16006 -3.32169,2.30113 -4.98185,3.42364 -1.47032,-3.51038 -2.94251,-7.05158 -4.39595,-10.58985 -1.12912,-2.73573 -2.31637,-5.23536 -3.55613,-7.50284 -1.23837,-2.37052 -2.51858,-4.31658 -3.83809,-5.83924 -1.28965,-1.5419 -2.60822,-2.56917 -3.95888,-3.07951 -1.34894,-0.61408 -2.70559,-0.52343 -4.07958,0.28273 -5.13745,3.01426 -10.28483,5.84926 -15.43963,8.52037 6.54125,23.3164 14.9853,49.20763 21.90174,70.28546 8.09233,-4.71873 16.19899,-9.77764 24.31614,-15.20944 1.48821,4.11973 2.93448,8.13555 4.41118,12.25131 -8.23635,5.45234 -16.45987,10.54291 -24.66659,15.30147 7.34471,22.27581 17.36518,52.69575 25.55821,74.87461 z"
       id="text11"
       transform="matrix(0.48940804,0,0,0.43641083,521.99107,203.9835)"
       aria-label="EXCHANGE"
       inkscape:path-effect="#path-effect14"
       inkscape:original-d="m -833.89558,494.48338 h 22.31461 q 2.76814,0 4.68889,-0.7344 1.97725,-0.7909 3.27658,-2.09023 1.29933,-1.29933 2.03374,-2.99411 0.7344,-1.75128 1.01686,-3.67203 l 0.7909,-4.97135 h 6.04472 l -0.7909,20.22438 h -62.02896 v -4.85837 h 1.46881 q 1.92075,0 3.61553,-0.22597 1.75128,-0.28247 3.05061,-1.07337 1.29933,-0.79089 2.03373,-2.3162 0.7909,-1.58179 0.7909,-4.12396 v -56.83163 q 0,-2.71165 -0.7344,-4.34994 -0.73441,-1.63829 -2.03374,-2.48568 -1.29933,-0.90388 -3.0506,-1.18634 -1.69478,-0.28246 -3.67203,-0.28246 h -1.46881 v -4.85838 h 58.30044 l 0.56493,20.22438 h -5.98822 l -0.56493,-4.97135 q -0.22597,-1.92075 -0.90388,-3.61553 -0.62142,-1.75128 -1.86426,-3.05061 -1.18635,-1.29933 -3.05061,-2.03373 -1.80776,-0.7909 -4.40642,-0.7909 h -19.43349 v 30.78851 h 27.90739 v 5.64926 h -27.90739 z m 98.91868,-68.6386 q 0,-1.01687 -0.50843,-1.63828 -0.45194,-0.67792 -1.29933,-1.01687 -0.7909,-0.39545 -1.92076,-0.50844 -1.12985,-0.16947 -2.48567,-0.16947 h -0.33896 v -4.85838 h 25.30872 v 4.85838 h -1.01687 q -1.69478,0 -3.1071,0.39544 -1.35582,0.39545 -2.65515,1.41232 -1.29933,0.96038 -2.71165,2.54217 -1.35582,1.5818 -2.99411,3.95449 l -16.77833,24.17886 21.29774,34.23456 q 2.54217,3.38956 4.80188,4.80188 2.25971,1.35583 4.46292,1.35583 h 1.46881 v 4.85837 h -31.24045 v -4.85837 h 0.62142 q 6.89211,0 6.89211,-3.84151 0,-0.62142 -0.16948,-1.24283 -0.11299,-0.62142 -0.50844,-1.46881 -0.39544,-0.84739 -1.18634,-2.09023 -0.73441,-1.24284 -1.92075,-3.16359 l -11.46802,-18.41662 -12.82383,18.98154 q -0.50844,0.73441 -1.01687,1.69478 -0.50843,0.90389 -0.96038,1.92075 -0.45194,1.01687 -0.7344,2.09023 -0.28246,1.01687 -0.28246,1.92075 0,1.97725 1.80776,2.82464 1.86426,0.7909 5.70576,0.7909 h 0.33896 v 4.85837 h -27.56843 v -4.85837 h 0.73441 q 2.09023,0 3.61553,-0.39545 1.58179,-0.45194 2.88112,-1.41232 1.35583,-0.96038 2.65516,-2.48568 1.29933,-1.5253 2.88113,-3.78501 l 19.32049,-27.68141 -19.09452,-31.01448 q -2.09023,-3.33306 -4.74539,-4.68889 -2.59866,-1.41231 -5.19732,-1.41231 h -1.52531 v -4.85838 h 31.35344 v 4.85838 h -0.33896 q -1.97724,0 -3.27657,0.28246 -1.29933,0.22597 -2.03374,0.67791 -0.7344,0.45194 -1.01687,1.07336 -0.28246,0.62142 -0.28246,1.29933 0,0.62142 0.0565,1.18635 0.11299,0.56493 0.39545,1.35582 0.28246,0.73441 0.7909,1.75128 0.56493,1.01686 1.5253,2.54217 l 10.45115,16.89131 10.95957,-16.66534 q 1.29934,-1.97725 2.09023,-3.72852 0.7909,-1.75127 0.7909,-3.33307 z m 63.89321,-9.37778 q 5.93173,0 10.28167,1.01687 4.40643,0.96037 7.28755,2.71165 2.93762,1.75127 4.34994,4.12396 1.46881,2.37269 1.46881,5.14083 0,1.86426 -0.7909,3.38956 -0.73441,1.46881 -2.09023,2.54217 -1.35582,1.01687 -3.22008,1.5818 -1.80777,0.56493 -3.95449,0.56493 0,-2.71165 -0.7344,-5.36681 -0.67792,-2.65515 -2.3162,-4.74538 -1.5818,-2.14672 -4.18046,-3.44606 -2.54217,-1.35582 -6.32718,-1.35582 -6.55315,0 -11.12906,2.42919 -4.5759,2.37269 -7.45703,7.00509 -2.88113,4.5759 -4.18046,11.35502 -1.29933,6.72263 -1.29933,15.42251 0,7.73949 1.35582,14.17966 1.35583,6.44016 4.29345,11.07256 2.93762,4.57591 7.45703,7.11808 4.57591,2.54217 10.95958,2.54217 4.23695,0 7.45703,-0.7909 3.27658,-0.84739 5.76225,-2.20321 2.48568,-1.35583 4.34994,-3.1071 1.92075,-1.80777 3.38956,-3.72852 0.96038,0.62142 1.5818,1.69478 0.62142,1.07336 0.62142,2.82464 0,2.20321 -1.52531,4.51941 -1.46881,2.25971 -4.51941,4.12397 -3.05061,1.86425 -7.7395,3.10709 -4.68889,1.18635 -11.12905,1.18635 -8.64338,0 -15.19653,-3.0506 -6.55315,-3.05061 -11.01608,-8.64338 -4.40642,-5.59278 -6.66613,-13.44526 -2.25971,-7.85248 -2.25971,-17.39974 0,-9.37779 2.37269,-17.17378 2.3727,-7.79599 7.0051,-13.38876 4.68889,-5.59278 11.63749,-8.69987 6.9486,-3.1071 16.10041,-3.1071 z m 80.954,83.77864 v -4.85837 h 1.5253 q 1.97725,0 3.67203,-0.28247 1.75127,-0.28246 2.99411,-1.12985 1.29933,-0.90388 2.03374,-2.54217 0.79089,-1.63829 0.79089,-4.34994 v -27.11648 h -37.62412 v 27.11648 q 0,2.71165 0.73441,4.34994 0.79089,1.63829 2.03373,2.54217 1.29933,0.84739 3.05061,1.12985 1.75127,0.28247 3.67202,0.28247 h 1.5253 v 4.85837 h -33.66963 v -4.85837 h 1.46881 q 1.97724,0 3.67202,-0.28247 1.75128,-0.28246 3.05061,-1.12985 1.29933,-0.90388 2.03373,-2.54217 0.73441,-1.63829 0.73441,-4.34994 V 430.3642 q 0,-2.54217 -0.7909,-4.06748 -0.7344,-1.58179 -2.03374,-2.42918 -1.29933,-0.84739 -3.0506,-1.07336 -1.69478,-0.28246 -3.61553,-0.28246 h -1.46881 v -4.85838 h 33.66963 v 4.85838 h -1.5253 q -1.92075,0 -3.67202,0.28246 -1.75128,0.28246 -3.05061,1.18634 -1.24284,0.84739 -2.03373,2.48568 -0.73441,1.63829 -0.73441,4.34994 v 23.38797 h 37.62412 v -23.38797 q 0,-2.71165 -0.79089,-4.34994 -0.73441,-1.63829 -2.03374,-2.48568 -1.24284,-0.90388 -2.99411,-1.18634 -1.69478,-0.28246 -3.67203,-0.28246 h -1.5253 v -4.85838 h 33.66964 v 4.85838 h -1.46881 q -1.97725,0 -3.72852,0.28246 -1.69478,0.28246 -2.99411,1.18634 -1.29933,0.84739 -2.03374,2.48568 -0.7344,1.63829 -0.7344,4.34994 v 56.83163 q 0,2.54217 0.7344,4.12396 0.7909,1.52531 2.09023,2.3162 1.29933,0.7909 2.99411,1.07337 1.75128,0.22597 3.67203,0.22597 h 1.46881 v 4.85837 z m 61.46404,-27.62492 -4.40643,12.14592 q -0.50843,1.35583 -0.7909,2.71165 -0.28246,1.29933 -0.28246,2.25971 0,2.93762 1.86426,4.29344 1.92075,1.35583 5.81874,1.35583 h 2.65516 v 4.85837 h -28.24634 v -4.85837 h 2.20321 q 1.69479,0 2.88113,-0.33896 1.18635,-0.39545 2.14672,-1.41232 0.96038,-1.01687 1.80777,-2.76814 0.90388,-1.75127 1.97724,-4.51941 l 25.64768,-68.6951 h 9.03882 l 26.15611,71.57622 q 0.67792,1.80777 1.35583,2.99412 0.7344,1.18634 1.69478,1.92075 0.96037,0.67791 2.20321,0.96037 1.24284,0.28247 2.93762,0.28247 h 1.5253 v 4.85837 h -31.80537 v -4.85837 h 2.65515 q 6.9486,0 6.9486,-5.53629 0,-0.96037 -0.28246,-1.97724 -0.22597,-1.01687 -0.67791,-2.3162 l -4.6324,-12.93682 z m 21.12826,-26.04313 q -1.80777,-5.14083 -3.33307,-9.60375 -1.46881,-4.51941 -2.42918,-8.69987 -0.39545,2.09023 -0.96038,4.06747 -0.50843,1.92075 -1.12985,3.95449 -0.62142,2.03373 -1.41232,4.29344 -0.7909,2.20322 -1.80777,4.91486 l -7.85248,21.29774 h 26.09962 z m 102.87315,53.66805 -43.38638,-66.66136 v 53.49856 q 0,2.71165 0.73441,4.34994 0.79089,1.63829 2.03373,2.54217 1.29933,0.84739 3.05061,1.12985 1.75127,0.28247 3.67202,0.28247 h 1.5253 v 4.85837 h -29.03723 v -4.85837 h 1.46881 q 1.97724,0 3.67202,-0.28247 1.75127,-0.28246 3.05061,-1.12985 1.29933,-0.90388 2.03373,-2.54217 0.73441,-1.63829 0.73441,-4.34994 V 430.3642 q 0,-2.54217 -0.7909,-4.06748 -0.73441,-1.58179 -2.03374,-2.42918 -1.29933,-0.84739 -3.0506,-1.07336 -1.69478,-0.28246 -3.61553,-0.28246 h -1.46881 v -4.85838 h 21.18475 l 41.40913,63.94971 V 430.3642 q 0,-2.54217 -0.7909,-4.06748 -0.7344,-1.58179 -2.03373,-2.42918 -1.29933,-0.84739 -3.05061,-1.07336 -1.69478,-0.28246 -3.61553,-0.28246 h -1.5253 v -4.85838 h 29.03724 v 4.85838 h -1.46881 q -1.97725,0 -3.72852,0.28246 -1.69478,0.28246 -2.99411,1.18634 -1.29933,0.84739 -2.03374,2.48568 -0.7344,1.63829 -0.7344,4.34994 v 69.4295 z m 68.86458,1.12985 q -10.0557,0 -17.56922,-3.0506 -7.45703,-3.05061 -12.42839,-8.64338 -4.91486,-5.59278 -7.34405,-13.44526 -2.42918,-7.85248 -2.42918,-17.39974 0,-9.37779 2.54217,-17.17378 2.59866,-7.79599 7.683,-13.38876 5.14084,-5.59278 12.71085,-8.69987 7.57002,-3.1071 17.56923,-3.1071 6.44016,0 11.18555,1.01687 4.80187,0.96037 7.96546,2.71165 3.22009,1.75127 4.80188,4.12396 1.58179,2.37269 1.58179,5.14083 0,1.86426 -0.84739,3.38956 -0.84739,1.46881 -2.31619,2.54217 -1.41232,1.01687 -3.38957,1.5818 -1.92075,0.56493 -4.18045,0.56493 0,-2.71165 -0.7909,-5.36681 -0.7909,-2.65515 -2.59866,-4.74538 -1.80777,-2.14672 -4.74539,-3.44606 -2.93762,-1.35582 -7.17457,-1.35582 -7.34405,0 -12.54137,2.42919 -5.14084,2.37269 -8.41741,7.00509 -3.27658,4.5759 -4.74539,11.35502 -1.46881,6.72263 -1.46881,15.42251 0,8.64337 1.52531,15.366 1.5253,6.72263 4.97135,11.29854 3.44606,4.5759 8.92585,6.9486 5.47978,2.37269 13.38876,2.37269 3.33307,0 6.44016,-0.33896 3.16359,-0.33895 5.59278,-1.07336 v -18.64258 q 0,-2.54217 -0.7909,-4.06747 -0.7344,-1.5818 -2.03373,-2.3727 -1.29934,-0.84739 -3.05061,-1.12985 -1.69478,-0.28246 -3.61553,-0.28246 h -0.45194 v -4.85837 h 30.0541 v 4.85837 h -0.45194 q -1.63829,0 -3.1071,0.28246 -1.46881,0.28246 -2.54217,1.18635 -1.07336,0.84739 -1.69478,2.54217 -0.62142,1.63829 -0.62142,4.34993 v 20.78931 q -5.81874,2.71165 -11.97644,4.01098 -6.15771,1.29933 -13.61474,1.29933 z m 63.27182,-6.89211 h 22.31461 q 2.76814,0 4.68889,-0.7344 1.97724,-0.7909 3.27658,-2.09023 1.29933,-1.29933 2.03373,-2.99411 0.73441,-1.75128 1.01687,-3.67203 l 0.7909,-4.97135 h 6.04471 l -0.79089,20.22438 h -62.02896 v -4.85837 h 1.46881 q 1.92075,0 3.61553,-0.22597 1.75127,-0.28247 3.0506,-1.07337 1.29934,-0.79089 2.03374,-2.3162 0.7909,-1.58179 0.7909,-4.12396 v -56.83163 q 0,-2.71165 -0.73441,-4.34994 -0.7344,-1.63829 -2.03373,-2.48568 -1.29933,-0.90388 -3.05061,-1.18634 -1.69478,-0.28246 -3.67202,-0.28246 h -1.46881 v -4.85838 h 58.30044 l 0.56493,20.22438 h -5.98823 l -0.56492,-4.97135 q -0.22597,-1.92075 -0.90389,-3.61553 -0.62142,-1.75128 -1.86425,-3.05061 -1.18635,-1.29933 -3.05061,-2.03373 -1.80776,-0.7909 -4.40643,-0.7909 h -19.43348 v 30.78851 h 27.90738 v 5.64926 h -27.90738 z"
       inkscape:label="bottom text" />
    <path
       d="m -697.54664,194.53106 c 0.13022,1.94472 0.42274,3.50186 0.86749,4.6211 0.47251,1.11193 1.0358,1.92893 1.68725,2.4359 0.67607,0.45628 1.44254,0.66486 2.30299,0.62483 0.86041,-0.04 1.75193,-0.2005 2.67859,-0.47917 -0.0124,0.004 1.93342,-0.58005 1.92103,-0.57632 0.10988,1.81501 0.22962,3.67317 0.36281,5.55766 -8.60453,2.79606 -17.01506,5.65035 -25.59698,8.58366 -0.29308,-2.10275 -0.55583,-4.16596 -0.7941,-6.17672 0.19358,-0.0598 1.72919,-0.53437 1.92276,-0.59417 0.92709,-0.28652 1.78866,-0.64894 2.58711,-1.08398 0.8208,-0.48929 1.51177,-1.14817 2.07829,-1.96753 0.5664,-0.8192 0.97192,-1.88054 1.22301,-3.1653 0.27437,-1.33512 0.33281,-2.96638 0.17923,-4.85121 -1.94071,-23.81758 -4.04251,-38.8549 -5.58642,-47.40342 -0.59037,0.13538 -7.85244,1.80401 -8.4428,1.93939 -1.29033,0.29675 -2.36994,0.65076 -3.2217,1.05847 -0.82728,0.38727 -1.49932,0.81674 -2.00754,1.2945 -0.4801,0.4719 -0.81615,0.98279 -1.00435,1.5457 -0.16276,0.54093 -0.2423,1.11422 -0.23864,1.73096 -0.005,0.7965 -0.003,1.64414 0.002,2.52528 0.0883,-0.0183 -4.68407,0.96813 -4.59574,0.94982 -0.50107,-3.34797 -1.00768,-6.24607 -1.08527,-8.37836 16.56634,-3.9638 32.99789,-7.90205 49.52159,-11.70338 0.57532,2.62737 1.38945,5.77125 2.1818,9.52256 -0.0652,0.0134 -4.49962,0.92762 -4.5648,0.94101 -0.30468,-0.89457 -0.60849,-1.74797 -0.91056,-2.5679 -0.23696,-0.63176 -0.55127,-1.18519 -0.94184,-1.66609 -0.39392,-0.49887 -0.90088,-0.87966 -1.52077,-1.15225 -0.61972,-0.27252 -1.39411,-0.41116 -2.32289,-0.42472 -0.93093,-0.0299 -2.05821,0.10796 -3.37654,0.40552 -2.85457,0.64432 -5.70785,1.29188 -8.56263,1.94234 1.59518,8.73521 3.7299,23.70195 5.25736,46.51182 z m 61.18341,-2.46993 c 0.0928,-1.62504 0.17481,-3.2238 0.24597,-4.79865 -5.7e-4,1.3e-4 1.12494,-0.2533 1.12438,-0.25317 0.97193,-0.21787 1.87921,-0.50912 2.72281,-0.87322 0.87131,-0.37015 1.62796,-0.89166 2.26899,-1.56107 0.67063,-0.71116 1.21437,-1.62044 1.62477,-2.71709 0.43803,-1.1015 0.69273,-2.48715 0.74576,-4.12648 0.26614,-8.22775 0.13753,-15.58845 -0.2776,-22.26452 -4.37334,0.74871 -8.73553,1.52197 -13.10154,2.31871 -5.16036,0.94323 -10.30223,1.91634 -15.45052,2.91534 0.55158,6.93258 0.80183,14.34506 0.83307,23.14023 0.006,1.72771 0.18431,3.10129 0.54032,4.08807 0.38387,0.98018 0.87436,1.69933 1.47612,2.14798 0.62997,0.40412 1.36876,0.59267 2.22163,0.56539 0.85275,-0.0273 1.74714,-0.15845 2.68638,-0.39192 -0.001,3e-4 1.11995,-0.27732 1.11877,-0.27702 -0.039,1.61189 -0.0851,3.24616 -0.13754,4.90981 -8.16471,2.12535 -16.23256,4.42906 -24.29495,6.88107 -0.0516,-1.77572 -0.0984,-3.5397 -0.14275,-5.25534 -0.002,5.6e-4 1.06924,-0.30207 1.06728,-0.30151 0.95798,-0.27001 1.8457,-0.61891 2.6646,-1.0445 0.84627,-0.43318 1.58097,-1.03033 2.20564,-1.78515 0.62407,-0.79366 1.10997,-1.79528 1.4559,-2.99161 0.34558,-1.19515 0.50933,-2.69199 0.48128,-4.45422 -0.32314,-20.30207 -1.45937,-30.76004 -3.53937,-42.1897 -0.15751,-0.86553 -0.48268,-1.48553 -0.97587,-1.88696 -0.46768,-0.4254 -1.05619,-0.69006 -1.76507,-0.80623 -0.70862,-0.11612 -1.51533,-0.10762 -2.41756,0.0194 -0.87686,0.10393 -1.80423,0.26415 -2.78001,0.47881 -0.002,4.5e-4 -1.11764,0.24617 -1.11966,0.24661 -0.13094,-0.71017 -0.2536,-1.39343 -0.36265,-2.04399 8.53799,-1.94489 17.08106,-3.84393 25.65181,-5.68038 0.22234,1.18259 0.19717,1.04562 0.41952,2.22822 -0.001,2.9e-4 -1.16553,0.24072 -1.16694,0.24101 -0.97896,0.20257 -1.90787,0.44199 -2.78344,0.71657 -0.87527,0.27448 -1.61963,0.62352 -2.2276,1.04801 -0.58296,0.40086 -1.02812,0.90606 -1.3318,1.52646 -0.27548,0.61574 -0.32917,1.37854 -0.16125,2.32624 0.74042,4.17868 1.44633,8.7721 2.00769,14.35618 5.16198,-0.98729 10.31842,-1.94961 15.4923,-2.88306 4.3775,-0.78846 8.75172,-1.55437 13.13636,-2.29658 -0.45453,-5.47264 -1.08915,-10.31764 -1.79958,-14.67452 -0.16389,-1.00508 -0.50151,-1.74823 -1.00802,-2.2513 -0.47756,-0.5084 -1.07663,-0.83892 -1.79426,-1.00166 -0.69225,-0.18754 -1.49602,-0.23905 -2.409,-0.15961 -0.88422,0.0738 -1.83225,0.2109 -2.84278,0.40973 -0.001,2.2e-4 -1.16836,0.2304 -1.16947,0.23061 -0.14989,-0.80014 -0.29831,-1.57296 -0.44433,-2.32354 8.59037,-1.77253 17.19714,-3.47089 25.83776,-5.07864 0.16408,0.83225 0.32504,1.68312 0.48221,2.55228 -7.6e-4,1.4e-4 -1.13081,0.20021 -1.13158,0.20034 -1.01496,0.18021 -1.96376,0.40196 -2.84403,0.66329 -0.85117,0.25608 -1.58239,0.6046 -2.19109,1.04538 -0.61269,0.42097 -1.05613,0.95772 -1.33073,1.61824 -0.27502,0.66154 -0.32885,1.49015 -0.16697,2.51472 1.69952,10.75677 2.86533,24.39483 2.11142,41.48255 -0.0674,1.52749 0.0461,2.75624 0.35261,3.66387 0.33682,0.86763 0.80587,1.49161 1.41544,1.86468 0.60956,0.37306 1.32487,0.5704 2.15118,0.59109 0.8569,-0.0201 1.76062,-0.11731 2.71327,-0.29088 -2e-4,4e-5 1.09296,-0.19801 1.09277,-0.19797 -0.12759,1.52671 -0.27231,3.07912 -0.43537,4.6571 -8.31061,1.53259 -16.53313,3.26911 -24.74468,5.21253 z m 48.78704,-14.42694 c 5.58862,-0.75871 11.1838,-1.43216 16.79903,-2.02336 1.39313,-0.14667 2.59908,-0.49502 3.62034,-1.04783 1.05297,-0.59029 1.95201,-1.31654 2.69238,-2.17397 0.74012,-0.85715 1.34544,-1.81257 1.81005,-2.8588 0.46768,-1.07984 0.81605,-2.18416 1.04273,-3.30959 0.30832,-1.45707 0.5987,-2.88735 0.8727,-4.28867 1.53333,-0.14572 3.06694,-0.28633 4.60106,-0.42185 -0.50806,5.61275 -1.29319,11.78996 -2.528,18.47459 -15.65354,1.20874 -31.03823,3.08083 -46.42717,5.70571 0.1781,-1.57321 0.33626,-3.12031 0.47598,-4.641 0.36524,-0.0613 0.73054,-0.12215 1.09593,-0.18268 0.95572,-0.15831 1.86202,-0.37548 2.7198,-0.652 0.88924,-0.31628 1.68159,-0.77063 2.37574,-1.36127 0.69378,-0.59034 1.26758,-1.3825 1.71305,-2.36649 0.47627,-1.02188 0.77371,-2.29633 0.87309,-3.797 1.07675,-16.25988 0.0465,-30.63871 -1.49689,-41.42567 -0.15399,-1.07624 -0.47422,-1.89396 -0.95276,-2.46595 -0.4786,-0.57206 -1.08163,-0.9607 -1.80473,-1.17211 -0.72679,-0.23274 -1.5512,-0.32481 -2.47092,-0.28 -0.89078,0.04 -1.84509,0.14665 -2.8623,0.31884 -7e-4,1.2e-4 -1.13273,0.19234 -1.13343,0.19246 -0.15809,-0.88858 -0.3211,-1.76102 -0.48857,-2.61653 14.99337,-2.69965 30.03537,-5.10258 45.19258,-7.1272 0.85555,4.20094 1.54523,8.55948 2.08901,12.92111 -1.54529,0.15709 -3.09013,0.31834 -4.63469,0.48371 -0.24806,-1.06417 -0.50468,-2.11995 -0.76933,-3.16513 -0.20859,-0.80761 -0.53371,-1.54875 -0.97419,-2.22331 -0.41422,-0.70183 -0.98202,-1.28425 -1.70047,-1.74708 -0.68927,-0.4665 -1.54049,-0.78813 -2.5509,-0.96558 -0.98479,-0.20462 -2.15061,-0.21433 -3.49603,-0.032 -5.03099,0.68158 -10.05298,1.40367 -15.06943,2.16373 0.96747,5.87713 1.71547,12.56621 2.12154,19.6209 7.13476,-0.90583 14.26533,-1.72457 21.41671,-2.45314 0.0587,1.32016 0.10654,2.66425 0.14192,4.02846 -7.13515,0.72398 -14.24829,1.54009 -21.36642,2.44599 0.31347,8.23911 0.18836,17.84232 -0.92741,28.44276 z m 90.89962,2.04148 c -5.10855,-0.12145 -9.32925,-1.31611 -12.81918,-3.45389 -3.45167,-2.13188 -6.18171,-5.0038 -8.31691,-8.44142 -2.10103,-3.42937 -3.63,-7.35364 -4.63965,-11.59143 -1.01111,-4.2439 -1.53378,-8.68522 -1.56241,-13.30553 -0.0282,-4.55094 0.48028,-8.52449 1.6145,-12.19148 1.15733,-3.64922 2.93027,-6.84394 5.3571,-9.63169 2.45157,-2.78424 5.57575,-5.12529 9.38276,-6.92727 3.8132,-1.8049 8.34918,-2.92096 13.61205,-3.17898 3.3943,-0.16641 6.35528,-0.0133 8.89864,0.45276 2.56771,0.43386 4.70975,1.11551 6.42752,2.02186 1.74616,0.90507 3.06067,1.9869 3.94223,3.21751 0.88161,1.23067 1.34251,2.55071 1.38601,3.94425 0.0293,0.9386 -0.16852,1.78132 -0.58957,2.53317 -0.42172,0.72394 -1.00873,1.34453 -1.75845,1.86621 -0.72106,0.49422 -1.59131,0.87663 -2.60923,1.1509 -0.98867,0.27422 -2.06813,0.41316 -3.23792,0.4196 -0.0313,-1.30203 -0.27416,-2.60083 -0.73137,-3.89788 -0.45715,-1.29691 -1.18348,-2.46809 -2.17711,-3.49982 -0.99541,-1.0605 -2.28362,-1.9094 -3.86122,-2.52925 -1.58157,-0.64958 -3.47994,-0.93489 -5.7003,-0.8509 -3.84431,0.14541 -7.07673,0.91808 -9.69843,2.23789 -2.59299,1.29004 -4.65878,3.09101 -6.21789,5.34996 -1.56251,2.23477 -2.64131,4.92576 -3.27572,8.09982 -0.63949,3.16788 -0.91659,6.7416 -0.9138,10.97898 0.003,4.19235 0.29614,8.12946 0.89817,11.73459 0.60213,3.60572 1.62196,6.84636 3.11242,9.57045 1.49396,2.73045 3.49229,4.9293 6.07856,6.48047 2.59104,1.55404 5.85257,2.38699 9.87116,2.44109 1.69061,0.0228 3.3368,-0.0662 4.94423,-0.26962 1.63603,-0.20283 3.10077,-0.54118 4.39813,-1.01574 0.81206,-6.32721 1.30067,-12.04301 1.60522,-17.15001 0.0838,-1.40439 -0.0632,-2.50011 -0.42771,-3.3131 -0.33434,-0.84291 -0.82807,-1.46601 -1.47406,-1.87854 -0.64489,-0.44203 -1.41351,-0.73343 -2.30168,-0.87648 -0.85952,-0.14317 -1.78033,-0.21147 -2.76054,-0.20489 1e-5,0 -0.34606,0.002 -0.34604,0.002 0.0419,-1.25057 0.0747,-2.48221 0.0996,-3.69255 7.6865,-0.0642 15.36486,-0.0206 23.04445,0.12823 -0.0395,1.21792 -0.086,2.45835 -0.14084,3.7191 2e-5,0 -0.34575,-0.007 -0.34573,-0.007 -0.83535,-0.0167 -1.63131,0.0419 -2.38654,0.17588 -0.7552,0.13395 -1.41719,0.4324 -1.98556,0.89817 -0.56738,0.43641 -1.03001,1.09928 -1.39339,2.00349 -0.36182,0.87392 -0.58353,2.04819 -0.6803,3.5637 -0.36666,5.74171 -0.96253,12.29698 -1.98616,19.69289 -3.22742,1.83963 -6.47541,3.21098 -9.75548,4.07433 -3.28251,0.86399 -6.79424,1.23976 -10.57956,1.14977 z m 91.68712,-34.26664 c -0.28556,4.69491 -1.20763,9.21546 -2.79127,13.69205 -1.58017,4.46681 -3.78922,8.73482 -6.5681,12.48171 -2.78779,3.75889 -6.08579,6.86515 -9.85213,9.00261 -3.78636,2.14884 -7.8619,3.05902 -12.31997,2.65835 -4.68336,-0.42092 -8.51609,-2.03317 -11.66016,-4.66653 -2.90784,-2.43549 -5.21824,-5.54027 -7.02709,-9.09873 -0.13871,-0.27295 -0.27445,-0.54855 -0.40725,-0.82667 -1.85745,-3.88993 -3.18324,-8.21824 -4.01219,-12.71201 -0.82914,-4.53918 -1.18682,-9.14709 -1.04836,-13.86732 0.13883,-4.73317 0.75582,-8.80187 1.93795,-12.54438 1.17414,-3.74411 2.91417,-7.05012 5.23576,-9.87456 0.16566,-0.20154 0.33448,-0.40038 0.50648,-0.59645 0,0 0,0 0,0 2.24007,-2.5544 5.02854,-4.65261 8.37265,-6.15329 3.61257,-1.65389 7.83165,-2.45469 12.70092,-2.23956 4.63774,0.20491 8.6735,1.3693 12.17953,3.41551 3.49003,2.00303 6.37371,4.71038 8.66046,7.91213 2.28061,3.16127 3.94146,6.75601 4.96313,10.65256 1.02623,3.88139 1.41672,8.04457 1.12964,12.76458 z m -45.85533,-2.93335 c -0.1484,4.22483 -0.035,8.26833 0.3387,12.0835 0.40419,3.78217 1.15181,7.32493 2.27858,10.42037 1.13417,3.06922 2.68709,5.661 4.73156,7.60063 2.08451,1.90684 4.71811,3.03186 7.98868,3.28988 3.27133,0.25809 6.12635,-0.43677 8.61089,-2.03976 2.50726,-1.63509 4.63638,-4.03031 6.35043,-6.98767 1.74343,-2.98728 3.09814,-6.46786 4.02258,-10.22885 0.92885,-3.80095 1.50713,-7.80169 1.74108,-12.02705 0.23301,-4.20849 0.0824,-7.87173 -0.41359,-11.15436 -0.49453,-3.30801 -1.43625,-6.24023 -2.81437,-8.73139 -1.35134,-2.49339 -3.17579,-4.54067 -5.47358,-6.02895 -2.27563,-1.49114 -5.08776,-2.34647 -8.46658,-2.51778 -3.37656,-0.17121 -6.23791,0.39475 -8.60532,1.62074 -2.3621,1.22324 -4.29009,3.032 -5.79316,5.32885 -1.4735,2.29754 -2.55846,5.07497 -3.27221,8.30625 -0.68621,3.21394 -1.07467,6.82277 -1.22369,11.06559 z m 101.78657,-4.91213 c -0.18549,1.84707 -0.62567,3.37492 -1.32798,4.63614 -0.67287,1.26428 -1.54282,2.32556 -2.6088,3.19349 -1.06586,0.86785 -2.30417,1.56243 -3.71186,2.08243 -1.37711,0.4979 -2.85959,0.88416 -4.44611,1.15631 5.8e-4,-0.007 -0.0278,0.32745 -0.0272,0.32058 1.97458,0.58956 3.76226,1.38988 5.34912,2.40098 1.58662,1.01095 2.91213,2.24362 3.9598,3.71536 1.07941,1.4488 1.8629,3.14474 2.33363,5.14445 0.47443,1.97342 0.58333,4.25445 0.30707,6.97601 -0.67645,6.66391 -3.21615,12.6645 -7.42353,16.65425 -4.26193,4.00067 -10.09061,5.75895 -17.70568,4.79091 -4.72329,-0.60043 -9.45453,-1.18613 -14.18503,-1.75444 -3.95187,-0.47484 -7.90955,-0.93843 -11.86717,-1.38813 0.27472,-2.08032 0.52762,-4.07604 0.76103,-5.99044 9.8e-4,1.1e-4 1.1104,0.11973 1.11138,0.11983 0.99791,0.10797 1.93626,0.0974 2.81826,-0.0314 0.91061,-0.12564 1.73166,-0.48517 2.46495,-1.06948 0.73794,-0.62763 1.36375,-1.54502 1.87212,-2.72125 0.50783,-1.175 0.86881,-2.7373 1.06667,-4.61002 1.7088,-16.17388 2.70375,-33.45508 3.47378,-44.87867 0.0897,-1.33046 -0.04,-2.45315 -0.39376,-3.3365 -0.32251,-0.91126 -0.80434,-1.65287 -1.44827,-2.20824 -0.64424,-0.55563 -1.41658,-0.95147 -2.32013,-1.18088 -0.87193,-0.25852 -1.80715,-0.44105 -2.80746,-0.54652 1.4e-4,2e-5 -1.1472,-0.12002 -1.14705,-0.12001 -0.0125,0.21983 0.25524,-4.55223 0.24276,-4.3324 4.10746,0.4184 8.20981,0.87412 12.30765,1.36666 4.00522,0.48134 8.00511,0.9977 12.0002,1.54857 7.86755,1.08483 13.45679,3.5883 16.96476,7.08014 3.48693,3.43537 4.89496,7.92285 4.38688,12.98222 z m -33.34086,42.7952 c 2.82963,0.33184 5.65877,0.67081 8.48596,1.01644 2.47622,0.30272 4.598,0.20299 6.38755,-0.29041 1.78722,-0.49276 3.30236,-1.43167 4.54745,-2.76537 1.24791,-1.37365 2.2366,-3.17087 2.9512,-5.29043 0.71429,-2.11865 1.21749,-4.62283 1.48866,-7.37632 0.26404,-2.68111 0.25295,-4.87013 -0.0113,-6.69757 -0.26396,-1.82525 -0.88192,-3.3308 -1.84077,-4.57094 -0.92949,-1.23529 -2.23606,-2.21823 -3.90586,-2.96251 -1.66896,-0.7439 -3.79893,-1.27952 -6.37241,-1.59761 -2.90521,-0.3591 -5.8118,-0.70605 -8.71951,-1.04061 -0.61356,8.11075 -1.44663,18.30077 -3.01094,31.57533 z m 3.32026,-35.73154 c 2.03853,0.23981 4.07642,0.486 6.11363,0.7385 2.58312,0.32017 4.7492,0.38321 6.50549,0.18546 1.75507,-0.1976 3.18609,-0.65755 4.29197,-1.38006 1.10795,-0.74861 1.93859,-1.781 2.49092,-3.10636 0.5817,-1.32271 0.96071,-2.95454 1.1453,-4.95581 0.18692,-2.02656 0.1093,-3.81815 -0.24444,-5.33403 -0.35091,-1.54456 -1.02892,-2.89487 -2.04309,-4.00726 -1.01508,-1.11337 -2.38967,-2.02025 -4.13348,-2.69104 -1.71487,-0.66665 -3.84189,-1.18224 -6.38896,-1.53091 -2.00416,-0.27435 -4.00944,-0.54058 -6.01592,-0.79862 -0.81969,10.37991 -1.06403,13.93269 -1.72142,22.88013 z m 35.75746,48.16603 c 0.2588,-2.16686 0.50207,-4.23305 0.73143,-6.20803 3.2e-4,4e-5 1.1044,0.15418 1.10473,0.15423 0.99196,0.13876 1.92453,0.15307 2.80113,0.0445 0.9051,-0.10461 1.72083,-0.45228 2.45015,-1.03107 0.73398,-0.62314 1.35707,-1.5443 1.86629,-2.72795 0.50868,-1.18237 0.87441,-2.75875 1.08477,-4.64338 2.18137,-19.54323 2.88259,-28.88051 4.64658,-42.83002 0.17005,-1.34476 0.12914,-2.50109 -0.13363,-3.43303 -0.26289,-0.9323 -0.6937,-1.70321 -1.299,-2.29314 -0.60142,-0.62097 -1.33943,-1.09988 -2.21906,-1.42806 -0.85034,-0.32258 -1.78299,-0.57955 -2.80019,-0.7691 2.1e-4,4e-5 -1.13335,-0.21032 -1.13314,-0.21029 0.17471,-1.36253 0.3597,-2.77544 0.55659,-4.24813 8.70011,1.63671 17.36526,3.42809 26.00176,5.36658 -0.23548,1.42693 -0.45528,2.79517 -0.66137,4.11149 2.5e-4,6e-5 -1.1699,-0.25518 -1.16964,-0.25512 -0.98259,-0.21358 -1.93255,-0.33881 -2.85225,-0.37662 -0.88634,-0.0624 -1.69489,0.0676 -2.42737,0.38307 -0.73197,0.31523 -1.36005,0.85086 -1.88111,1.58881 -0.48768,0.71408 -0.82032,1.71509 -0.98971,2.96589 -2.13576,15.77061 -2.82968,25.38153 -5.79345,50.98196 5.70936,0.84361 11.42593,1.7124 17.12717,2.60269 1.30119,0.20319 2.44057,0.0153 3.42893,-0.54667 1.01992,-0.60041 1.89105,-1.40911 2.61283,-2.40176 0.72629,-1.0339 1.32262,-2.18006 1.78645,-3.41802 0.49207,-1.23329 0.86602,-2.43656 1.12201,-3.61527 0.61339,-2.72637 1.20243,-5.22702 1.76938,-7.54114 1.51559,0.26737 3.03113,0.53737 4.54642,0.80999 -0.98628,6.47141 -2.2652,15.18823 -3.70654,25.92217 -15.38455,-2.43131 -31.1192,-4.78406 -46.57016,-6.95456 z m 54.10221,8.15567 c 0.24869,-2.14286 0.48927,-4.18712 0.71978,-6.12525 -2.9e-4,-5e-5 1.10012,0.18207 1.09983,0.18202 0.9876,0.16371 1.91624,0.20323 2.7895,0.12108 0.90168,-0.0774 1.71476,-0.39549 2.44318,-0.94029 0.73321,-0.5881 1.35748,-1.46879 1.87178,-2.60445 0.51369,-1.13434 0.88917,-2.65265 1.11678,-4.46573 1.87886,-14.96634 3.95983,-30.69764 5.46477,-39.44078 0.208,-1.2084 0.20359,-2.26503 -0.027,-3.13667 -0.23066,-0.87202 -0.63183,-1.61249 -1.21215,-2.20259 -0.57533,-0.61823 -1.29066,-1.11885 -2.1524,-1.49292 -0.83282,-0.36651 -1.74978,-0.67993 -2.75344,-0.93809 2.8e-4,7e-5 -1.11832,-0.28688 -1.11805,-0.28681 0.23053,-1.24401 0.47787,-2.53934 0.74448,-3.89106 8.56303,2.25967 17.09204,4.65384 25.59639,7.1743 -0.28059,1.26852 -0.53959,2.48396 -0.77992,3.6502 3.3e-4,1e-4 -1.15539,-0.3301 -1.15506,-0.33 -0.97038,-0.27659 -1.91048,-0.47075 -2.8234,-0.58307 -0.9131,-0.11235 -1.74011,-0.04 -2.48267,0.21032 -0.70814,0.23104 -1.33636,0.67981 -1.87959,1.32838 -0.51423,0.65572 -0.88302,1.59376 -1.09329,2.77514 -1.44501,8.1185 -3.70773,24.33661 -5.56615,38.75179 -0.23114,1.79287 -0.2423,3.36261 -0.0248,4.61338 0.24599,1.25728 0.63366,2.30313 1.16869,3.10185 0.56893,0.76113 1.27388,1.33371 2.12091,1.70801 0.84689,0.37423 1.74736,0.6462 2.70572,0.81639 -6.1e-4,-1.1e-4 1.14134,0.20304 1.14073,0.20293 -0.23427,1.891 -0.47605,3.88615 -0.72314,5.9832 -8.37119,-1.43397 -16.80703,-2.83213 -25.19153,-4.18128 z m 77.64531,13.88465 c -8.08369,-31.65818 -14.84975,-36.27285 -24.95283,-55.3121 -0.88877,4.79196 -3.9235,23.41178 -5.53539,34.68047 -0.24549,1.71623 -0.26666,3.22738 -0.0562,4.43745 0.23891,1.21709 0.62173,2.23448 1.15326,3.01684 0.56566,0.74697 1.26832,1.31498 2.11391,1.69514 0.84545,0.38009 1.74483,0.66274 2.70265,0.84902 -8.6e-4,-1.7e-4 1.14092,0.22232 1.14006,0.22215 -0.24212,1.81324 -0.48908,3.72831 -0.73787,5.74508 -7.21733,-1.33902 -14.47095,-2.64012 -21.69358,-3.89911 0.2471,-2.08102 0.48968,-4.05993 0.72537,-5.93511 -6.4e-4,-1.1e-4 1.09884,0.20021 1.0982,0.20009 0.98615,0.17999 1.9138,0.2385 2.7866,0.17856 0.9012,-0.0548 1.71471,-0.34376 2.44501,-0.85249 0.73528,-0.55041 1.36335,-1.38456 1.88423,-2.4648 0.52024,-1.0789 0.90589,-2.52907 1.14846,-4.26197 1.75827,-12.56075 4.67385,-30.92744 5.85061,-37.0694 0.19957,-1.04163 0.17354,-1.96581 -0.0904,-2.74535 -0.23063,-0.79597 -0.62898,-1.49145 -1.20316,-2.07037 -0.57449,-0.57921 -1.28881,-1.05675 -2.14964,-1.42462 -0.82653,-0.38551 -1.72269,-0.72232 -2.69134,-1.00838 3.2e-4,1e-4 -1.11105,-0.32741 -1.11073,-0.32731 0.24094,-1.14408 0.50088,-2.33657 0.78287,-3.58108 5.34197,1.62672 10.67341,3.30202 15.99725,5.02392 6.70068,18.95778 16.72754,27.7024 24.11435,46.969 2.40398,-13.41945 3.54089,-19.65549 5.36577,-28.85528 0.18103,-0.91262 0.13871,-1.7363 -0.13676,-2.44822 -0.24263,-0.72417 -0.64977,-1.37152 -1.22868,-1.92818 -0.57923,-0.55695 -1.29519,-1.03422 -2.15443,-1.42453 -0.8255,-0.40354 -1.71917,-0.76901 -2.68388,-1.09436 4e-4,1.4e-4 -1.14912,-0.38687 -1.14872,-0.38674 0.227,-1.00398 0.47348,-2.05018 0.74324,-3.14042 7.27287,2.53678 14.5371,5.15485 21.80315,7.84981 -0.24664,0.99716 -0.47056,1.95604 -0.67599,2.87731 4e-4,1.4e-4 -1.1072,-0.39514 -1.1068,-0.395 -0.99388,-0.35418 -1.94102,-0.63208 -2.84563,-0.83427 -0.87635,-0.1922 -1.67776,-0.22743 -2.40708,-0.11041 -0.72397,0.0954 -1.33679,0.39002 -1.83375,0.86978 -0.49659,0.47943 -0.84392,1.20908 -1.03031,2.15919 -2.38561,12.16025 -4.54952,18.90099 -8.22254,46.04899 -2.05296,-0.42258 -4.10643,-0.84032 -6.15923,-1.2533 z"
       id="text18"
       style="font-size:86.7387px;font-family:'Droid Serif';-inkscape-font-specification:'Droid Serif, Normal';fill:#ac851a;stroke:#000000;stroke-width:1.12716"
       transform="matrix(0.69430755,0,0,1.0344295,572.68867,-60.794666)"
       aria-label="THE GOBLIN"
       inkscape:path-effect="#path-effect18"
       inkscape:original-d="m -696.80309,197.20043 q 0,2.03294 0.55058,3.26117 0.59294,1.22823 1.52471,1.90588 0.97411,0.63529 2.28705,0.84706 1.31294,0.21176 2.75294,0.21176 h 1.99059 v 3.64235 h -26.97879 v -3.64235 h 1.99059 q 1.43999,0 2.71058,-0.16941 1.31294,-0.21176 2.28706,-0.8047 0.97411,-0.59295 1.5247,-1.73647 0.59294,-1.18588 0.59294,-3.09176 v -48.15523 h -8.30117 q -1.90588,0 -3.21881,0.59294 -1.27059,0.55059 -2.11765,1.5247 -0.8047,0.97412 -1.22823,2.28706 -0.38118,1.27059 -0.55059,2.71058 l -0.46588,3.72706 h -4.48941 l 0.42353,-15.16233 h 48.83287 l 0.42353,15.16233 h -4.4894 l -0.42353,-3.72706 q -0.16941,-1.43999 -0.59294,-2.71058 -0.42353,-1.31294 -1.22823,-2.28706 -0.80471,-0.97411 -2.11765,-1.5247 -1.31294,-0.59294 -3.26117,-0.59294 h -8.42822 z m 62.51285,9.86822 v -3.64235 h 1.14353 q 1.48235,0 2.75293,-0.21176 1.31294,-0.21177 2.24471,-0.84706 0.97411,-0.67765 1.5247,-1.90588 0.59294,-1.22823 0.59294,-3.26117 v -20.32939 h -28.20702 v 20.32939 q 0,2.03294 0.55059,3.26117 0.59294,1.22823 1.5247,1.90588 0.97412,0.63529 2.28706,0.84706 1.31294,0.21176 2.75294,0.21176 h 1.14352 v 3.64235 h -25.24231 v -3.64235 h 1.10117 q 1.48235,0 2.75294,-0.21176 1.31294,-0.21177 2.28705,-0.84706 0.97412,-0.67765 1.52471,-1.90588 0.55059,-1.22823 0.55059,-3.26117 v -42.52229 q 0,-1.90588 -0.59294,-3.04941 -0.55059,-1.18588 -1.52471,-1.82118 -0.97411,-0.63529 -2.28705,-0.8047 -1.27059,-0.21177 -2.71059,-0.21177 h -1.10117 v -3.64234 h 25.24231 v 3.64234 h -1.14352 q -1.44,0 -2.75294,0.21177 -1.31294,0.21176 -2.28706,0.88941 -0.93176,0.63529 -1.5247,1.86353 -0.55059,1.22823 -0.55059,3.26117 v 17.53409 h 28.20702 v -17.53409 q 0,-2.03294 -0.59294,-3.26117 -0.55059,-1.22824 -1.5247,-1.86353 -0.93177,-0.67765 -2.24471,-0.88941 -1.27058,-0.21177 -2.75293,-0.21177 h -1.14353 v -3.64234 h 25.24232 v 3.64234 h -1.10118 q -1.48235,0 -2.79529,0.21177 -1.27059,0.21176 -2.2447,0.88941 -0.97412,0.63529 -1.52471,1.86353 -0.55058,1.22823 -0.55058,3.26117 v 42.607 q 0,1.90588 0.55058,3.09176 0.59294,1.14352 1.56706,1.73647 0.97412,0.59294 2.2447,0.8047 1.31294,0.16941 2.75294,0.16941 h 1.10118 v 3.64235 z m 48.83287,-4.31999 h 16.72939 q 2.07529,0 3.51529,-0.55059 1.48235,-0.59294 2.45646,-1.56706 0.97412,-0.97411 1.52471,-2.2447 0.55059,-1.31294 0.76235,-2.75294 l 0.59294,-3.72705 h 4.53176 l -0.59294,15.16233 h -46.50347 v -3.64235 h 1.10118 q 1.44,0 2.71058,-0.16941 1.31294,-0.21176 2.28706,-0.8047 0.97412,-0.59295 1.5247,-1.73647 0.59294,-1.18588 0.59294,-3.09176 v -42.607 q 0,-2.03294 -0.55058,-3.26117 -0.55059,-1.22824 -1.52471,-1.86353 -0.97411,-0.67765 -2.28705,-0.88941 -1.27059,-0.21177 -2.75294,-0.21177 h -1.10118 v -3.64234 h 43.70818 l 0.42353,15.16233 h -4.48941 l -0.42353,-3.72706 q -0.16941,-1.43999 -0.67764,-2.71058 -0.46589,-1.31294 -1.39765,-2.28706 -0.88941,-0.97411 -2.28705,-1.5247 -1.3553,-0.59294 -3.30353,-0.59294 h -14.56939 v 23.08232 h 20.92232 v 4.23529 h -20.92232 z m 91.05871,5.16705 q -7.53882,0 -13.17175,-2.28706 -5.59058,-2.28705 -9.31763,-6.47999 -3.6847,-4.19293 -5.50588,-10.07999 -1.82117,-5.88705 -1.82117,-13.04468 0,-7.03058 1.90588,-12.87528 1.94823,-5.8447 5.75999,-10.03763 3.85411,-4.19294 9.5294,-6.52235 5.67528,-2.3294 13.17174,-2.3294 4.82823,0 8.38587,0.76235 3.6,0.72 5.97176,2.03294 2.41411,1.31294 3.6,3.09176 1.18588,1.77882 1.18588,3.85411 0,1.39764 -0.6353,2.54117 -0.63529,1.10118 -1.73647,1.90588 -1.05882,0.76235 -2.54117,1.18588 -1.44,0.42353 -3.13411,0.42353 0,-2.03294 -0.59294,-4.02352 -0.59294,-1.99059 -1.94823,-3.55764 -1.3553,-1.60941 -3.55765,-2.58353 -2.20235,-1.01647 -5.37881,-1.01647 -5.50588,0 -9.40234,1.82117 -3.85411,1.77883 -6.31058,5.25176 -2.45647,3.43058 -3.55764,8.51293 -1.10118,5.03999 -1.10118,11.56234 0,6.47999 1.14353,11.51998 1.14353,5.03999 3.72705,8.47058 2.58353,3.43058 6.69176,5.2094 4.10823,1.77882 10.03763,1.77882 2.49882,0 4.82823,-0.25411 2.37176,-0.25412 4.19293,-0.80471 V 187.9675 q 0,-1.90588 -0.59294,-3.04941 -0.55058,-1.18588 -1.5247,-1.77882 -0.97412,-0.63529 -2.28705,-0.84706 -1.27059,-0.21176 -2.71059,-0.21176 h -0.33882 v -3.64235 h 22.53173 v 3.64235 h -0.33882 q -1.22824,0 -2.32941,0.21176 -1.10118,0.21177 -1.90588,0.88941 -0.80471,0.6353 -1.27059,1.90588 -0.46588,1.22824 -0.46588,3.26118 v 15.58586 q -4.36235,2.03293 -8.97881,3.00705 -4.61646,0.97412 -10.20704,0.97412 z m 86.56929,-31.89172 q 0,7.15763 -1.77882,13.04468 -1.77882,5.88706 -5.25175,10.07999 -3.47294,4.19294 -8.55529,6.47999 -5.08234,2.28706 -11.64704,2.28706 -6.90352,0 -12.02822,-2.28706 -5.12469,-2.28705 -8.51293,-6.47999 -3.38823,-4.19293 -5.08234,-10.07999 -1.69412,-5.9294 -1.69412,-13.12939 0,-7.19999 1.69412,-13.04469 1.69411,-5.88705 5.08234,-10.03763 3.38824,-4.15058 8.55529,-6.39528 5.16705,-2.28706 12.07057,-2.28706 6.56469,0 11.60469,2.28706 5.03999,2.2447 8.51293,6.43763 3.47293,4.15059 5.25175,10.03764 1.77882,5.84469 1.77882,13.08704 z m -44.9364,0 q 0,6.43764 0.93176,11.51998 0.97412,5.03999 3.09176,8.55528 2.11765,3.47294 5.46352,5.33647 3.38823,1.82117 8.21646,1.82117 4.82823,0 8.17411,-1.82117 3.38823,-1.86353 5.46352,-5.33647 2.11764,-3.51529 3.04941,-8.55528 0.93176,-5.08234 0.93176,-11.51998 0,-6.43764 -0.93176,-11.47763 -0.93177,-5.08235 -3.04941,-8.55529 -2.07529,-3.47293 -5.42117,-5.29411 -3.30352,-1.82117 -8.13175,-1.82117 -4.82823,0 -8.21646,1.82117 -3.38823,1.82118 -5.54823,5.29411 -2.11764,3.47294 -3.09176,8.55529 -0.93176,5.03999 -0.93176,11.47763 z m 98.72456,-15.3741 q 0,2.92235 -0.84706,5.1247 -0.8047,2.20235 -2.2447,3.85411 -1.44,1.65176 -3.43059,2.79529 -1.94823,1.10118 -4.23528,1.86353 v 0.33882 q 2.9647,0.50824 5.42116,1.73647 2.45647,1.22823 4.19294,3.21882 1.77882,1.94823 2.75294,4.65882 0.97411,2.66823 0.97411,6.09881 0,8.38587 -5.50587,12.57881 -5.50588,4.15058 -16.77174,4.15058 h -25.83526 v -3.64235 h 1.10118 q 1.48235,0 2.75293,-0.21176 1.31294,-0.21177 2.28706,-0.84706 0.97411,-0.67765 1.5247,-1.90588 0.55059,-1.22823 0.55059,-3.26117 v -42.52229 q 0,-1.90588 -0.59294,-3.04941 -0.55059,-1.18588 -1.5247,-1.82118 -0.97412,-0.63529 -2.28706,-0.8047 -1.27059,-0.21177 -2.71058,-0.21177 h -1.10118 v -3.64234 h 23.25173 q 11.26587,0 16.77174,3.7694 5.50588,3.72706 5.50588,11.73175 z m -28.54584,42.09877 h 8.42822 q 3.6847,0 6.22587,-0.67765 2.54118,-0.67765 4.15058,-2.16 1.60941,-1.5247 2.32941,-3.93882 0.72,-2.41411 0.72,-5.88705 0,-3.38823 -0.63529,-5.88705 -0.63529,-2.49882 -2.20235,-4.15058 -1.5247,-1.65176 -4.06588,-2.45647 -2.54117,-0.8047 -6.35293,-0.8047 h -8.59763 z m 0,-30.28231 h 6.0141 q 3.81176,0 6.35294,-0.67765 2.54117,-0.67765 4.06587,-2.07529 1.52471,-1.44 2.16,-3.6847 0.67765,-2.24471 0.67765,-5.37882 0,-3.17646 -0.72,-5.29411 -0.72,-2.16 -2.32941,-3.47294 -1.60941,-1.31293 -4.19294,-1.86352 -2.54117,-0.55059 -6.22587,-0.55059 h -5.80234 z m 39.727,34.6023 v -3.64235 h 1.10118 q 1.48235,0 2.75293,-0.21176 1.31294,-0.21177 2.28706,-0.84706 0.97411,-0.67765 1.5247,-1.90588 0.55059,-1.22823 0.55059,-3.26117 v -42.18347 q 0,-2.03294 -0.55059,-3.26117 -0.55059,-1.22824 -1.5247,-1.86353 -0.97412,-0.67765 -2.28706,-0.88941 -1.27058,-0.21177 -2.75293,-0.21177 h -1.10118 v -3.64234 h 25.24232 v 3.64234 h -1.14353 q -1.44,0 -2.75294,0.21177 -1.27058,0.16941 -2.2447,0.8047 -0.97412,0.6353 -1.56706,1.82118 -0.55058,1.14353 -0.55058,3.04941 v 48.07052 h 17.11056 q 1.94823,0 3.30352,-0.67765 1.39765,-0.72 2.28706,-1.82117 0.88941,-1.14353 1.35529,-2.54118 0.50824,-1.39764 0.67765,-2.79529 l 0.84706,-6.47999 h 4.53175 l -0.59294,18.63527 z m 54.04227,0 v -3.64235 h 1.10117 q 1.48235,0 2.75294,-0.21176 1.31294,-0.21177 2.28706,-0.84706 0.97411,-0.67765 1.5247,-1.90588 0.55059,-1.22823 0.55059,-3.26117 v -42.18347 q 0,-2.03294 -0.55059,-3.26117 -0.55059,-1.22824 -1.5247,-1.86353 -0.97412,-0.67765 -2.28706,-0.88941 -1.27059,-0.21177 -2.75294,-0.21177 h -1.10117 v -3.64234 h 25.24231 v 3.64234 h -1.14352 q -1.44,0 -2.75294,0.21177 -1.31294,0.21176 -2.28706,0.88941 -0.93176,0.63529 -1.5247,1.86353 -0.55059,1.22823 -0.55059,3.26117 v 42.18347 q 0,2.03294 0.55059,3.26117 0.59294,1.22823 1.5247,1.90588 0.97412,0.63529 2.28706,0.84706 1.31294,0.21176 2.75294,0.21176 h 1.14352 v 3.64235 z m 77.88694,0 -32.52701,-49.9764 v 40.10818 q 0,2.03294 0.55059,3.26117 0.59294,1.22823 1.5247,1.90588 0.97412,0.63529 2.28706,0.84706 1.31294,0.21176 2.75294,0.21176 h 1.14352 v 3.64235 h -21.76938 v -3.64235 h 1.10118 q 1.48235,0 2.75293,-0.21176 1.31294,-0.21177 2.28706,-0.84706 0.97412,-0.67765 1.5247,-1.90588 0.55059,-1.22823 0.55059,-3.26117 v -42.52229 q 0,-1.90588 -0.59294,-3.04941 -0.55059,-1.18588 -1.5247,-1.82118 -0.97412,-0.63529 -2.28706,-0.8047 -1.27058,-0.21177 -2.71058,-0.21177 h -1.10118 v -3.64234 h 15.88233 l 31.04467,47.94346 v -38.41406 q 0,-1.90588 -0.59295,-3.04941 -0.55058,-1.18588 -1.5247,-1.82118 -0.97412,-0.63529 -2.28705,-0.8047 -1.27059,-0.21177 -2.71059,-0.21177 h -1.14353 v -3.64234 h 21.76938 v 3.64234 h -1.10117 q -1.48235,0 -2.79529,0.21177 -1.27059,0.21176 -2.2447,0.88941 -0.97412,0.63529 -1.52471,1.86353 -0.55058,1.22823 -0.55058,3.26117 v 52.05169 z"
       inkscape:label="top text" />
  </g>
  <g
     inkscape:groupmode="layer"
     id="layer3"
     inkscape:label="face">
    <path
       id="path3"
       style="display:inline;fill:#79e840;fill-opacity:1;stroke:none;stroke-width:9.41600037;stroke-opacity:1;filter:url(#filter164);stroke-dasharray:none"
       inkscape:label="head"
       d="m 85.99987,166.95927 c 0,0 32.78039,25.79837 25.17383,39.68164 -2.66466,3.69987 0.48112,7.12711 4.62695,10.95118 l 20.00391,-4.92969 -8.67578,22.48828 c -0.019,0.26583 -0.0302,0.52968 -0.0684,0.80078 -1.12403,7.97645 3.23389,17.78401 6.15429,23.26953 1.26881,2.38326 1.61201,6.25644 0.69532,8.79688 -4.80921,13.32796 -16.16707,51.26042 10.2832,51.42773 18.29596,0.11573 24.13044,-15.78654 24.70312,-34.46289 19.29749,17.23235 51.93855,27.62121 86.94922,27.67383 34.58498,-0.0518 66.88756,-10.1917 86.28125,-27.08399 0.67689,18.42159 6.58705,33.98756 24.69141,33.87305 26.4503,-0.1673 15.09241,-38.0978 10.2832,-51.42578 -0.91668,-2.54044 -0.57349,-6.41362 0.69531,-8.79688 2.92041,-5.48553 7.27835,-15.29306 6.1543,-23.26953 -1.96515,-13.94518 21.97982,-20.85218 15.88672,-29.3125 -7.60658,-13.88329 25.17383,-39.68164 25.17383,-39.68164 0,0 -50.67998,0.1208 -73.70313,58.95313 -16.78873,-22.24104 -54.19081,-36.57224 -95.46289,-36.57813 -41.68992,0.0234 -79.36984,14.65828 -95.88086,37.24024 -5.2e-4,-0.002 -0.0273,-0.0977 -0.0273,-0.0977 -22.91538,-59.4143 -73.9375,-59.51758 -73.9375,-59.51758 z"
       sodipodi:nodetypes="ccccccssscccssssccccccc"
       transform="translate(0.49427068,0.027055)" />
    <path
       style="display:inline;fill:#daec00;fill-opacity:1;stroke:none;stroke-width:8.9;stroke-dasharray:none;stroke-opacity:1"
       d="m 367.50625,296.8363 c 7.48588,0.51886 13.43577,14.54443 13.4369,32.25745 4e-5,17.80316 -6.11313,32.23571 -13.6543,32.23633 -0.0241,-0.004 -0.0482,-0.008 -0.0723,-0.0117 -7.51099,-0.0945 -13.57945,-14.49243 -13.58203,-32.22461 0.006,-4.48833 0.40932,-8.92416 1.18359,-13.02344 -0.62503,-0.4109 -1.22465,-0.85107 -1.79297,-1.32812 -1.30596,5.63107 -1.99293,11.94539 -1.99805,18.36523 0.003,21.1055 7.22229,38.24712 16.16211,38.37696 0.0332,0.005 0.0664,0.0106 0.0996,0.0156 8.98209,0.002 16.26389,-17.1877 16.26367,-38.39258 -0.004,-21.10473 -7.04051,-38.4595 -15.98051,-38.37042 -0.53751,0.005 -0.81222,0.38891 -0.90583,0.86345 -0.085,0.4308 0.10974,1.18523 0.84012,1.23585 z"
       id="path166"
       sodipodi:nodetypes="sccccccccccsss"
       inkscape:label="earring" />
    <path
       style="display:inline;fill:#000000;stroke-width:0.1"
       d="m 216.352,256.5559 9.23835,9.69498 11.90765,-11.84978 11.69083,15.2405 10.19388,-13.26691 8.45057,14.03553 8.86711,-10.15584 9.48462,6.0734 8.82211,-9.5416 -9.08732,11.98358 -8.99162,-6.33349 -9.65436,11.00775 -7.81872,-13.21739 -9.98148,12.27841 -11.71962,-14.3689 -12.60828,11.46382 z"
       id="path8"
       sodipodi:nodetypes="ccccccccccccccccc"
       inkscape:label="mouth" />
    <g
       inkscape:groupmode="layer"
       id="layer8"
       inkscape:label="nose"
       style="display:none">
      <path
         style="opacity:1;fill:#79e840;fill-opacity:1;stroke:none;stroke-width:0.298415;stroke-dasharray:none;stroke-opacity:1"
         d="m 258.33089,238.34081 c -7.09022,5.81638 -23.05736,6.16134 -26.07122,15.68666 -4.21986,7.50608 -7.05068,32.29268 -6.09371,40.82483 5.83573,-16.24937 9.39088,-22.22011 10.63341,-27.59221 4.23036,-4.49664 11.48853,-9.96363 20.12522,-12.71755 4.21586,-4.54156 1.32722,-10.28103 1.4063,-16.20173 z"
         id="path394"
         sodipodi:nodetypes="cccccc"
         inkscape:label="nose" />
    </g>
    <g
       inkscape:groupmode="layer"
       id="layer6"
       inkscape:label="eyes 3D"
       style="display:none">
      <ellipse
         style="display:inline;fill:url(#radialGradient196);fill-opacity:1;stroke-width:0.1"
         id="ellipse2"
         cx="191.45"
         cy="256"
         rx="8.8727522"
         ry="12.769757"
         inkscape:label="left eye" />
      <ellipse
         style="display:inline;fill:url(#radialGradient201);fill-opacity:1;stroke-width:0.1"
         id="ellipse201"
         cx="319.90912"
         cy="256"
         rx="8.8727522"
         ry="12.769757"
         inkscape:label="left eye" />
    </g>
    <g
       inkscape:groupmode="layer"
       id="layer7"
       inkscape:label="eyes">
      <ellipse
         style="display:inline;fill:#000000;stroke-width:0.1"
         id="path2"
         cx="319.90912"
         cy="256"
         rx="8.8727522"
         ry="12.769757"
         inkscape:label="right eye plain" />
      <ellipse
         style="display:inline;fill:#000000;stroke-width:0.1"
         id="ellipse202"
         cx="191.45"
         cy="256"
         rx="8.8727522"
         ry="12.769757"
         inkscape:label="left eye plain" />
    </g>
    <path
       id="path395"
       style="display:inline;opacity:1;fill:#337a0f;fill-opacity:1;stroke:none;stroke-width:0.327502;stroke-dasharray:none;stroke-opacity:1"
       d="m 229.3906,153.39257 c 2.20617,0.0313 4.43381,0.3031 6.5918,0.83594 14.63911,3.61461 18.27287,21.02636 20.3125,36.02148 0.0105,-0.29635 0.0238,-0.59317 0.0449,-0.88867 0.46982,-5.74246 2.63511,-11.38907 6.25195,-15.64453 3.19941,-3.48723 5.79818,-6.02147 10.48047,-7.60742 3.1029,-1.05098 7.13897,-1.35346 10.25977,-0.35547 3.14847,0.74165 5.38508,4.01954 5.53515,7.43164 -1.49685,-1.22934 -2.96883,-2.63542 -4.82617,-3.17187 -5.4714,-1.34949 -11.09799,1.27911 -15.20508,5.10937 -6.06118,5.70453 -9.51341,13.90443 -11.63281,22.13867 0.007,0.0581 0.016,0.12375 0.0234,0.18164 -0.0112,-0.0441 -0.0239,-0.0906 -0.0352,-0.13476 -0.007,0.0287 -0.0161,0.0572 -0.0234,0.0859 -0.20873,-0.6966 -0.37583,-1.40635 -0.50976,-2.12305 -3.13988,-12.07663 -7.378,-25.66073 -17.71484,-32.36328 -10.33395,-7.28866 -22.87753,-4.52132 -28.56446,7.7207 -4.15255,-10.5651 7.09842,-17.40522 19.01172,-17.23633 z"
       inkscape:label="sprout hair" />
  </g>
</svg>
